# WaveFront *.obj file (generated by Autodesk ATF)

mtllib Brackets_0006.mtl

g MeshFeature1

v -0.000000 1.624818 0.316218
v 0.006638 1.613798 0.317585
v -0.000000 1.623081 0.301362
v 0.006638 1.612034 0.301362
v 0.006638 1.613798 0.285139
v 0.006638 1.619009 0.333049
v -0.000000 1.629933 0.330273
v 0.006638 1.627422 0.347032
v -0.000000 1.638152 0.342769
v 0.006638 1.638644 0.358879
v -0.000000 1.649032 0.353034
v 0.006638 1.652151 0.368037
v -0.000000 1.661985 0.360512
v 0.006638 1.667311 0.374077
v -0.000000 1.676314 0.364802
v 0.006638 1.683414 0.376718
v -0.000000 1.691246 0.365672
v 0.006638 1.699709 0.375834
v -0.000000 1.705976 0.363074
v 0.006638 1.715433 0.371468
v -0.000000 1.719709 0.357150
v 0.006638 1.729851 0.363825
v -0.000000 1.731707 0.348218
v 0.006638 1.742288 0.353260
v -0.000000 1.741321 0.336761
v 0.006638 1.752164 0.340269
v -0.000000 1.748034 0.323394
v 0.006638 1.759016 0.325458
v -0.000000 1.751483 0.308840
v 0.006638 1.762524 0.309521
v -0.000000 1.751483 0.293883
v 0.006638 1.762524 0.293203
v 0.006638 1.759016 0.277265
v -0.000000 1.748034 0.279329
v 0.006638 1.752164 0.262455
v -0.000000 1.741321 0.265963
v 0.006638 1.742288 0.249464
v -0.000000 1.731707 0.254505
v 0.006638 1.729851 0.238899
v -0.000000 1.719709 0.245574
v 0.006638 1.715433 0.231255
v -0.000000 1.705976 0.239649
v 0.006638 1.699709 0.226890
v -0.000000 1.691246 0.237052
v 0.006638 1.683414 0.226006
v -0.000000 1.676314 0.237922
v 0.006638 1.667311 0.228646
v -0.000000 1.661985 0.242211
v 0.006638 1.652151 0.234686
v -0.000000 1.649032 0.249690
v 0.006638 1.638644 0.243844
v -0.000000 1.638152 0.259954
v 0.006638 1.627422 0.255692
v -0.000000 1.629933 0.272451
v 0.006638 1.619009 0.269674
v -0.000000 1.624818 0.286506
v 0.070000 1.836734 0.324412
v 0.006638 1.762550 0.309524
v 0.070000 1.838504 0.301362
v 0.006638 1.762992 0.301362
v 0.006638 1.762550 0.293200
v 0.006638 1.761227 0.317590
v 0.070000 1.831467 0.346923
v 0.006638 1.759040 0.325467
v 0.006638 1.756015 0.333060
v 0.070000 1.822825 0.368365
v 0.006638 1.752186 0.340282
v 0.070000 1.811011 0.388237
v 0.006638 1.747599 0.347048
v 0.070000 1.796302 0.406073
v 0.006638 1.742307 0.353278
v 0.006638 1.736373 0.358899
v 0.070000 1.779042 0.421454
v 0.006638 1.729865 0.363846
v 0.070000 1.759638 0.434021
v 0.006638 1.722861 0.368060
v 0.006638 1.715443 0.371492
v 0.070000 1.738542 0.443478
v 0.006638 1.707696 0.374102
v 0.070000 1.716250 0.449604
v 0.006638 1.699713 0.375859
v 0.070000 1.693284 0.452255
v 0.006638 1.691587 0.376743
v 0.006638 1.683413 0.376743
v 0.070000 1.670182 0.451370
v 0.006638 1.675287 0.375859
v 0.070000 1.647487 0.446968
v 0.006638 1.667304 0.374102
v 0.006638 1.659557 0.371492
v 0.070000 1.625729 0.439154
v 0.006638 1.652139 0.368060
v 0.070000 1.605419 0.428109
v 0.006638 1.645135 0.363846
v 0.006638 1.638627 0.358899
v 0.070000 1.587033 0.414094
v 0.006638 1.632693 0.353278
v 0.070000 1.571002 0.397437
v 0.006638 1.627401 0.347048
v 0.070000 1.557702 0.378528
v 0.006638 1.622814 0.340282
v 0.006638 1.618985 0.333060
v 0.070000 1.547443 0.357810
v 0.006638 1.615960 0.325467
v 0.070000 1.540468 0.335769
v 0.006638 1.613773 0.317590
v 0.006638 1.612450 0.309524
v 0.070000 1.536939 0.312921
v 0.006638 1.612008 0.301362
v 0.070000 1.536939 0.289803
v 0.006638 1.612450 0.293200
v 0.070000 1.540468 0.266955
v 0.006638 1.613773 0.285133
v 0.006638 1.615960 0.277257
v 0.070000 1.547443 0.244914
v 0.006638 1.618985 0.269664
v 0.070000 1.557702 0.224196
v 0.006638 1.622814 0.262442
v 0.006638 1.627401 0.255676
v 0.070000 1.571002 0.205287
v 0.006638 1.632693 0.249446
v 0.070000 1.587033 0.188629
v 0.006638 1.638627 0.243825
v 0.070000 1.605419 0.174614
v 0.006638 1.645135 0.238878
v 0.006638 1.652139 0.234664
v 0.070000 1.625729 0.163570
v 0.006638 1.659557 0.231231
v 0.070000 1.647487 0.155756
v 0.006638 1.667304 0.228621
v 0.006638 1.675287 0.226864
v 0.070000 1.670182 0.151354
v 0.006638 1.683413 0.225980
v 0.070000 1.693284 0.150469
v 0.006638 1.691587 0.225980
v 0.006638 1.699713 0.226864
v 0.070000 1.716250 0.153120
v 0.006638 1.707696 0.228621
v 0.070000 1.738542 0.159246
v 0.006638 1.715443 0.231231
v 0.070000 1.759638 0.168703
v 0.006638 1.722861 0.234664
v 0.006638 1.729865 0.238878
v 0.070000 1.779042 0.181270
v 0.006638 1.736373 0.243825
v 0.070000 1.796302 0.196651
v 0.006638 1.742307 0.249446
v 0.006638 1.747599 0.255676
v 0.070000 1.811011 0.214486
v 0.006638 1.752186 0.262442
v 0.070000 1.822825 0.234358
v 0.006638 1.756015 0.269664
v 0.070000 1.831467 0.255801
v 0.006638 1.759040 0.277257
v 0.006638 1.761227 0.285133
v 0.070000 1.836734 0.278311
v 1.702356 0.000000 0.280950
v 1.703723 0.006638 0.269930
v 1.687500 0.000000 0.279214
v 1.687500 0.006638 0.268166
v 1.671277 0.006638 0.269930
v 1.719188 0.006638 0.275141
v 1.716411 0.000000 0.286066
v 1.733170 0.006638 0.283554
v 1.728908 0.000000 0.294285
v 1.745018 0.006638 0.294776
v 1.739172 0.000000 0.305164
v 1.754175 0.006638 0.308283
v 1.746650 0.000000 0.318117
v 1.760216 0.006638 0.323443
v 1.750940 0.000000 0.332446
v 1.762856 0.006638 0.339547
v 1.751810 0.000000 0.347378
v 1.761972 0.006638 0.355841
v 1.749213 0.000000 0.362108
v 1.757607 0.006638 0.371565
v 1.743288 0.000000 0.375842
v 1.749963 0.006638 0.385983
v 1.734356 0.000000 0.387839
v 1.739398 0.006638 0.398421
v 1.722899 0.000000 0.397453
v 1.726407 0.006638 0.408296
v 1.709533 0.000000 0.404166
v 1.711596 0.006638 0.415148
v 1.694979 0.000000 0.407616
v 1.695659 0.006638 0.418656
v 1.680021 0.000000 0.407616
v 1.679341 0.006638 0.418656
v 1.663403 0.006638 0.415148
v 1.665468 0.000000 0.404166
v 1.648593 0.006638 0.408296
v 1.652101 0.000000 0.397453
v 1.635602 0.006638 0.398421
v 1.640643 0.000000 0.387839
v 1.625037 0.006638 0.385983
v 1.631712 0.000000 0.375842
v 1.617394 0.006638 0.371565
v 1.625788 0.000000 0.362108
v 1.613028 0.006638 0.355841
v 1.623190 0.000000 0.347378
v 1.612144 0.006638 0.339547
v 1.624060 0.000000 0.332446
v 1.614784 0.006638 0.323443
v 1.628350 0.000000 0.318117
v 1.620825 0.006638 0.308283
v 1.635828 0.000000 0.305164
v 1.629982 0.006638 0.294776
v 1.646092 0.000000 0.294285
v 1.641830 0.006638 0.283554
v 1.658589 0.000000 0.286066
v 1.655813 0.006638 0.275141
v 1.672644 0.000000 0.280950
v 1.710551 0.070000 0.492867
v 1.695662 0.006638 0.418682
v 1.687500 0.070000 0.494636
v 1.687500 0.006638 0.419124
v 1.679338 0.006638 0.418682
v 1.703728 0.006638 0.417360
v 1.733061 0.070000 0.487599
v 1.711605 0.006638 0.415173
v 1.719198 0.006638 0.412147
v 1.754504 0.070000 0.478957
v 1.726420 0.006638 0.408318
v 1.774375 0.070000 0.467143
v 1.733186 0.006638 0.403731
v 1.792211 0.070000 0.452434
v 1.739416 0.006638 0.398439
v 1.745037 0.006638 0.392505
v 1.807592 0.070000 0.435175
v 1.749984 0.006638 0.385998
v 1.820159 0.070000 0.415770
v 1.754198 0.006638 0.378994
v 1.757630 0.006638 0.371575
v 1.829616 0.070000 0.394674
v 1.760240 0.006638 0.363829
v 1.835742 0.070000 0.372382
v 1.761998 0.006638 0.355846
v 1.838393 0.070000 0.349416
v 1.762881 0.006638 0.347719
v 1.762881 0.006638 0.339545
v 1.837508 0.070000 0.326315
v 1.761998 0.006638 0.331419
v 1.833106 0.070000 0.303619
v 1.760240 0.006638 0.323436
v 1.757630 0.006638 0.315690
v 1.825292 0.070000 0.281861
v 1.754198 0.006638 0.308271
v 1.814247 0.070000 0.261552
v 1.749984 0.006638 0.301267
v 1.745037 0.006638 0.294760
v 1.800233 0.070000 0.243166
v 1.739416 0.006638 0.288825
v 1.783575 0.070000 0.227134
v 1.733186 0.006638 0.283534
v 1.764666 0.070000 0.213834
v 1.726420 0.006638 0.278946
v 1.719198 0.006638 0.275118
v 1.743948 0.070000 0.203576
v 1.711605 0.006638 0.272092
v 1.721907 0.070000 0.196601
v 1.703728 0.006638 0.269905
v 1.695662 0.006638 0.268583
v 1.699059 0.070000 0.193072
v 1.687500 0.006638 0.268140
v 1.675941 0.070000 0.193072
v 1.679338 0.006638 0.268583
v 1.653093 0.070000 0.196601
v 1.671271 0.006638 0.269905
v 1.663395 0.006638 0.272092
v 1.631052 0.070000 0.203576
v 1.655802 0.006638 0.275118
v 1.610334 0.070000 0.213834
v 1.648580 0.006638 0.278946
v 1.641814 0.006638 0.283534
v 1.591425 0.070000 0.227134
v 1.635584 0.006638 0.288825
v 1.574767 0.070000 0.243166
v 1.629963 0.006638 0.294760
v 1.560753 0.070000 0.261552
v 1.625016 0.006638 0.301267
v 1.620802 0.006638 0.308271
v 1.549708 0.070000 0.281861
v 1.617370 0.006638 0.315690
v 1.541894 0.070000 0.303619
v 1.614759 0.006638 0.323436
v 1.613002 0.006638 0.331419
v 1.537492 0.070000 0.326315
v 1.612119 0.006638 0.339545
v 1.536607 0.070000 0.349416
v 1.612119 0.006638 0.347719
v 1.613002 0.006638 0.355846
v 1.539258 0.070000 0.372382
v 1.614759 0.006638 0.363829
v 1.545384 0.070000 0.394674
v 1.617370 0.006638 0.371575
v 1.554841 0.070000 0.415770
v 1.620802 0.006638 0.378994
v 1.625016 0.006638 0.385998
v 1.567408 0.070000 0.435175
v 1.629963 0.006638 0.392505
v 1.582789 0.070000 0.452434
v 1.635584 0.006638 0.398439
v 1.641814 0.006638 0.403731
v 1.600625 0.070000 0.467143
v 1.648580 0.006638 0.408318
v 1.620497 0.070000 0.478957
v 1.655802 0.006638 0.412147
v 1.641939 0.070000 0.487599
v 1.663395 0.006638 0.415173
v 1.671271 0.006638 0.417360
v 1.664449 0.070000 0.492867
v 0.095941 0.071193 0.000000
v 0.095941 0.071193 0.156250
v 0.105000 0.070000 0.000000
v 0.095941 0.071193 0.312500
v 0.105000 0.070000 0.625000
v 0.095941 0.071193 0.468750
v 0.095941 0.071193 0.625000
v 0.087500 0.074689 0.625000
v 0.087500 0.074689 0.468750
v 0.080251 0.080251 0.625000
v 0.080251 0.080251 0.468750
v 0.074689 0.087500 0.625000
v 0.074689 0.087500 0.468750
v 0.071193 0.095941 0.625000
v 0.071193 0.095941 0.468750
v 0.070000 0.105000 0.625000
v 0.071193 0.095941 0.312500
v 0.070000 0.105000 0.000000
v 0.071193 0.095941 0.156250
v 0.071193 0.095941 0.000000
v 0.074689 0.087500 0.000000
v 0.074689 0.087500 0.156250
v 0.080251 0.080251 0.000000
v 0.080251 0.080251 0.156250
v 0.087500 0.074689 0.000000
v 0.087500 0.074689 0.156250
v 0.087500 0.074689 0.312500
v 0.080251 0.080251 0.312500
v 0.074689 0.087500 0.312500
v 2.000000 0.070000 0.625000
v 2.000000 0.070000 0.000000
v 2.000000 -0.000000 0.000000
v 2.000000 -0.000000 0.625000
v 0.105000 0.000000 0.000000
v 0.105000 0.000000 0.625000
v 0.001595 0.086767 0.000000
v 0.001788 0.085706 0.312500
v 0.000000 0.105000 0.000000
v 0.001595 0.086767 0.625000
v 0.000000 0.105000 0.625000
v 0.006332 0.069088 0.000000
v 0.007090 0.067070 0.312500
v 0.006332 0.069088 0.625000
v 0.014067 0.052500 0.625000
v 0.015727 0.049725 0.312500
v 0.024565 0.037507 0.625000
v 0.027404 0.034262 0.312500
v 0.037507 0.024565 0.625000
v 0.041723 0.021208 0.312500
v 0.052500 0.014067 0.625000
v 0.058197 0.011008 0.312500
v 0.069088 0.006332 0.625000
v 0.076265 0.004008 0.312500
v 0.086767 0.001595 0.625000
v 0.095312 0.000448 0.312500
v 0.086767 0.001595 0.000000
v 0.069088 0.006332 0.000000
v 0.052500 0.014067 0.000000
v 0.037507 0.024565 0.000000
v 0.024565 0.037507 0.000000
v 0.014067 0.052500 0.000000
v -0.000000 2.000000 0.625000
v -0.000000 2.000000 0.000000
v 0.070000 2.000000 0.000000
v 0.070000 2.000000 0.625000
usemtl 156,156,156
f 1 2 3
f 3 2 4
f 3 4 5
f 2 1 6
f 6 1 7
f 6 7 8
f 8 7 9
f 8 9 10
f 10 9 11
f 10 11 12
f 12 11 13
f 12 13 14
f 14 13 15
f 14 15 16
f 16 15 17
f 16 17 18
f 18 17 19
f 18 19 20
f 20 19 21
f 20 21 22
f 22 21 23
f 22 23 24
f 24 23 25
f 24 25 26
f 26 25 27
f 26 27 28
f 28 27 29
f 28 29 30
f 30 29 31
f 30 31 32
f 32 31 33
f 33 31 34
f 33 34 35
f 35 34 36
f 35 36 37
f 37 36 38
f 37 38 39
f 39 38 40
f 39 40 41
f 41 40 42
f 41 42 43
f 43 42 44
f 43 44 45
f 45 44 46
f 45 46 47
f 47 46 48
f 47 48 49
f 49 48 50
f 49 50 51
f 51 50 52
f 51 52 53
f 53 52 54
f 53 54 55
f 55 54 56
f 55 56 5
f 5 56 3
f 57 58 59
f 59 58 60
f 59 60 61
f 58 57 62
f 62 57 63
f 62 63 64
f 64 63 65
f 65 63 66
f 65 66 67
f 67 66 68
f 67 68 69
f 69 68 70
f 69 70 71
f 71 70 72
f 72 70 73
f 72 73 74
f 74 73 75
f 74 75 76
f 76 75 77
f 77 75 78
f 77 78 79
f 79 78 80
f 79 80 81
f 81 80 82
f 81 82 83
f 83 82 84
f 84 82 85
f 84 85 86
f 86 85 87
f 86 87 88
f 88 87 89
f 89 87 90
f 89 90 91
f 91 90 92
f 91 92 93
f 93 92 94
f 94 92 95
f 94 95 96
f 96 95 97
f 96 97 98
f 98 97 99
f 98 99 100
f 100 99 101
f 101 99 102
f 101 102 103
f 103 102 104
f 103 104 105
f 105 104 106
f 106 104 107
f 106 107 108
f 108 107 109
f 108 109 110
f 110 109 111
f 110 111 112
f 112 111 113
f 113 111 114
f 113 114 115
f 115 114 116
f 115 116 117
f 117 116 118
f 118 116 119
f 118 119 120
f 120 119 121
f 120 121 122
f 122 121 123
f 122 123 124
f 124 123 125
f 125 123 126
f 125 126 127
f 127 126 128
f 127 128 129
f 129 128 130
f 130 128 131
f 130 131 132
f 132 131 133
f 132 133 134
f 134 133 135
f 135 133 136
f 135 136 137
f 137 136 138
f 137 138 139
f 139 138 140
f 139 140 141
f 141 140 142
f 142 140 143
f 142 143 144
f 144 143 145
f 144 145 146
f 146 145 147
f 147 145 148
f 147 148 149
f 149 148 150
f 149 150 151
f 151 150 152
f 151 152 153
f 153 152 154
f 154 152 155
f 154 155 61
f 61 155 59
f 2 106 4
f 4 106 108
f 4 108 110
f 6 103 2
f 2 103 105
f 2 105 106
f 8 100 6
f 6 100 101
f 6 101 103
f 10 96 8
f 8 96 98
f 8 98 100
f 12 93 10
f 10 93 94
f 10 94 96
f 14 89 12
f 12 89 91
f 12 91 93
f 16 86 14
f 14 86 88
f 14 88 89
f 18 83 16
f 16 83 84
f 16 84 86
f 20 79 18
f 18 79 81
f 18 81 83
f 22 76 20
f 20 76 77
f 20 77 79
f 24 72 22
f 22 72 74
f 22 74 76
f 26 69 24
f 24 69 71
f 24 71 72
f 28 65 26
f 26 65 67
f 26 67 69
f 30 62 28
f 28 62 64
f 28 64 65
f 32 60 30
f 30 60 58
f 30 58 62
f 33 154 32
f 32 154 61
f 32 61 60
f 35 151 33
f 33 151 153
f 33 153 154
f 37 147 35
f 35 147 149
f 35 149 151
f 39 144 37
f 37 144 146
f 37 146 147
f 41 141 39
f 39 141 142
f 39 142 144
f 43 137 41
f 41 137 139
f 41 139 141
f 45 134 43
f 43 134 135
f 43 135 137
f 47 130 45
f 45 130 132
f 45 132 134
f 49 127 47
f 47 127 129
f 47 129 130
f 51 124 49
f 49 124 125
f 49 125 127
f 53 120 51
f 51 120 122
f 51 122 124
f 55 117 53
f 53 117 118
f 53 118 120
f 5 113 55
f 55 113 115
f 55 115 117
f 4 110 5
f 5 110 112
f 5 112 113
f 156 157 158
f 158 157 159
f 158 159 160
f 157 156 161
f 161 156 162
f 161 162 163
f 163 162 164
f 163 164 165
f 165 164 166
f 165 166 167
f 167 166 168
f 167 168 169
f 169 168 170
f 169 170 171
f 171 170 172
f 171 172 173
f 173 172 174
f 173 174 175
f 175 174 176
f 175 176 177
f 177 176 178
f 177 178 179
f 179 178 180
f 179 180 181
f 181 180 182
f 181 182 183
f 183 182 184
f 183 184 185
f 185 184 186
f 185 186 187
f 187 186 188
f 188 186 189
f 188 189 190
f 190 189 191
f 190 191 192
f 192 191 193
f 192 193 194
f 194 193 195
f 194 195 196
f 196 195 197
f 196 197 198
f 198 197 199
f 198 199 200
f 200 199 201
f 200 201 202
f 202 201 203
f 202 203 204
f 204 203 205
f 204 205 206
f 206 205 207
f 206 207 208
f 208 207 209
f 208 209 210
f 210 209 211
f 210 211 160
f 160 211 158
f 212 213 214
f 214 213 215
f 214 215 216
f 213 212 217
f 217 212 218
f 217 218 219
f 219 218 220
f 220 218 221
f 220 221 222
f 222 221 223
f 222 223 224
f 224 223 225
f 224 225 226
f 226 225 227
f 227 225 228
f 227 228 229
f 229 228 230
f 229 230 231
f 231 230 232
f 232 230 233
f 232 233 234
f 234 233 235
f 234 235 236
f 236 235 237
f 236 237 238
f 238 237 239
f 239 237 240
f 239 240 241
f 241 240 242
f 241 242 243
f 243 242 244
f 244 242 245
f 244 245 246
f 246 245 247
f 246 247 248
f 248 247 249
f 249 247 250
f 249 250 251
f 251 250 252
f 251 252 253
f 253 252 254
f 253 254 255
f 255 254 256
f 256 254 257
f 256 257 258
f 258 257 259
f 258 259 260
f 260 259 261
f 261 259 262
f 261 262 263
f 263 262 264
f 263 264 265
f 265 264 266
f 265 266 267
f 267 266 268
f 268 266 269
f 268 269 270
f 270 269 271
f 270 271 272
f 272 271 273
f 273 271 274
f 273 274 275
f 275 274 276
f 275 276 277
f 277 276 278
f 277 278 279
f 279 278 280
f 280 278 281
f 280 281 282
f 282 281 283
f 282 283 284
f 284 283 285
f 285 283 286
f 285 286 287
f 287 286 288
f 287 288 289
f 289 288 290
f 290 288 291
f 290 291 292
f 292 291 293
f 292 293 294
f 294 293 295
f 294 295 296
f 296 295 297
f 297 295 298
f 297 298 299
f 299 298 300
f 299 300 301
f 301 300 302
f 302 300 303
f 302 303 304
f 304 303 305
f 304 305 306
f 306 305 307
f 306 307 308
f 308 307 309
f 309 307 310
f 309 310 216
f 216 310 214
f 157 261 159
f 159 261 263
f 159 263 265
f 161 258 157
f 157 258 260
f 157 260 261
f 163 255 161
f 161 255 256
f 161 256 258
f 165 251 163
f 163 251 253
f 163 253 255
f 167 248 165
f 165 248 249
f 165 249 251
f 169 244 167
f 167 244 246
f 167 246 248
f 171 241 169
f 169 241 243
f 169 243 244
f 173 238 171
f 171 238 239
f 171 239 241
f 175 234 173
f 173 234 236
f 173 236 238
f 177 231 175
f 175 231 232
f 175 232 234
f 179 227 177
f 177 227 229
f 177 229 231
f 181 224 179
f 179 224 226
f 179 226 227
f 183 220 181
f 181 220 222
f 181 222 224
f 185 217 183
f 183 217 219
f 183 219 220
f 187 215 185
f 185 215 213
f 185 213 217
f 188 309 187
f 187 309 216
f 187 216 215
f 190 306 188
f 188 306 308
f 188 308 309
f 192 302 190
f 190 302 304
f 190 304 306
f 194 299 192
f 192 299 301
f 192 301 302
f 196 296 194
f 194 296 297
f 194 297 299
f 198 292 196
f 196 292 294
f 196 294 296
f 200 289 198
f 198 289 290
f 198 290 292
f 202 285 200
f 200 285 287
f 200 287 289
f 204 282 202
f 202 282 284
f 202 284 285
f 206 279 204
f 204 279 280
f 204 280 282
f 208 275 206
f 206 275 277
f 206 277 279
f 210 272 208
f 208 272 273
f 208 273 275
f 160 268 210
f 210 268 270
f 210 270 272
f 159 265 160
f 160 265 267
f 160 267 268
f 311 312 313
f 313 312 314
f 313 314 315
f 315 314 316
f 315 316 317
f 317 316 318
f 318 316 319
f 318 319 320
f 320 319 321
f 320 321 322
f 322 321 323
f 322 323 324
f 324 323 325
f 324 325 326
f 326 325 327
f 326 327 328
f 328 327 329
f 328 329 330
f 330 329 331
f 331 329 332
f 331 332 333
f 333 332 334
f 333 334 335
f 335 334 336
f 335 336 311
f 311 336 312
f 319 316 314
f 314 312 337
f 337 312 336
f 337 336 338
f 338 336 334
f 338 334 339
f 339 334 332
f 339 332 327
f 327 332 329
f 321 319 337
f 337 319 314
f 321 337 338
f 323 321 338
f 323 338 339
f 325 323 339
f 325 339 327
f 212 214 340
f 340 214 310
f 340 310 315
f 315 310 307
f 315 307 305
f 305 303 315
f 315 303 300
f 315 300 298
f 298 295 315
f 315 295 293
f 315 293 291
f 291 288 315
f 315 288 286
f 315 286 313
f 313 286 283
f 313 283 281
f 281 278 313
f 313 278 276
f 313 276 274
f 274 271 313
f 313 271 269
f 313 269 266
f 313 266 341
f 341 266 264
f 341 264 262
f 262 259 341
f 341 259 257
f 341 257 254
f 254 252 341
f 341 252 250
f 341 250 247
f 247 245 341
f 341 245 242
f 341 242 240
f 341 240 340
f 340 240 237
f 340 237 235
f 235 233 340
f 340 233 230
f 340 230 228
f 228 225 340
f 340 225 223
f 340 223 221
f 221 218 340
f 340 218 212
f 342 341 343
f 343 341 340
f 156 158 342
f 342 158 211
f 342 211 344
f 344 211 209
f 344 209 207
f 207 205 344
f 344 205 203
f 344 203 201
f 344 201 345
f 345 201 199
f 345 199 197
f 197 195 345
f 345 195 193
f 345 193 191
f 191 189 345
f 345 189 343
f 343 189 186
f 343 186 184
f 184 182 343
f 343 182 180
f 343 180 178
f 178 176 343
f 343 176 174
f 343 174 172
f 172 170 343
f 343 170 342
f 342 170 168
f 342 168 166
f 166 164 342
f 342 164 162
f 342 162 156
f 346 347 348
f 348 347 349
f 348 349 350
f 346 351 347
f 347 351 352
f 347 352 353
f 353 352 354
f 354 352 355
f 354 355 356
f 356 355 357
f 356 357 358
f 358 357 359
f 358 359 360
f 360 359 361
f 360 361 362
f 362 361 363
f 362 363 364
f 364 363 365
f 364 365 345
f 345 365 344
f 344 365 366
f 366 365 363
f 366 363 367
f 367 363 361
f 367 361 368
f 368 361 359
f 368 359 369
f 369 359 357
f 369 357 370
f 370 357 355
f 370 355 371
f 371 355 352
f 371 352 351
f 353 349 347
f 56 348 3
f 3 348 350
f 3 350 1
f 1 350 7
f 7 350 9
f 9 350 11
f 11 350 13
f 13 350 15
f 15 350 372
f 15 372 17
f 17 372 19
f 19 372 21
f 21 372 23
f 23 372 25
f 25 372 27
f 27 372 29
f 29 372 373
f 29 373 31
f 31 373 34
f 34 373 36
f 36 373 38
f 38 373 40
f 40 373 42
f 42 373 44
f 44 373 46
f 46 373 348
f 46 348 48
f 48 348 50
f 50 348 52
f 52 348 54
f 54 348 56
f 374 373 375
f 375 373 372
f 155 374 59
f 59 374 375
f 59 375 57
f 57 375 63
f 63 375 66
f 66 375 68
f 68 375 70
f 70 375 73
f 73 375 75
f 75 375 78
f 78 375 80
f 80 375 82
f 82 375 85
f 85 375 87
f 87 375 326
f 87 326 90
f 90 326 92
f 92 326 95
f 95 326 97
f 97 326 99
f 99 326 102
f 102 326 104
f 104 326 107
f 107 326 328
f 107 328 109
f 109 328 111
f 111 328 114
f 114 328 116
f 116 328 119
f 119 328 121
f 121 328 123
f 123 328 126
f 126 328 128
f 128 328 374
f 128 374 131
f 131 374 133
f 133 374 136
f 136 374 138
f 138 374 140
f 140 374 143
f 143 374 145
f 145 374 148
f 148 374 150
f 150 374 152
f 152 374 155
f 375 372 326
f 326 372 350
f 326 350 349
f 326 349 324
f 324 349 353
f 324 353 322
f 322 353 354
f 322 354 356
f 322 356 320
f 320 356 358
f 320 358 318
f 318 358 360
f 318 360 362
f 318 362 317
f 317 362 364
f 317 364 315
f 315 364 345
f 315 345 343
f 343 340 315
f 373 374 348
f 348 374 328
f 348 328 346
f 346 328 330
f 346 330 351
f 351 330 331
f 351 331 371
f 371 331 370
f 370 331 333
f 370 333 369
f 369 333 335
f 369 335 368
f 368 335 367
f 367 335 311
f 367 311 366
f 366 311 313
f 366 313 344
f 344 313 342
f 342 313 341
# 375 vertices
# 0 texture params
# 0 normals
# 754 facets

# 1 groups
