# WaveFront *.obj file (generated by Autodesk ATF)

mtllib Strut Channel Floor Mount_0006.mtl

g MeshFeature1

v 1.119606 0.000000 1.063375
v 1.119606 0.250000 1.063375
v 1.125000 0.000000 1.000000
v 1.125000 0.250000 1.000000
v 1.119606 0.000000 0.936625
v 1.119606 0.250000 0.936625
v 1.103579 0.000000 0.875073
v 1.103579 0.250000 0.875073
v 1.077380 0.000000 0.817114
v 1.077380 0.250000 0.817114
v 1.041763 0.000000 0.764418
v 1.041763 0.250000 0.764418
v 0.997753 0.000000 0.718498
v 0.997753 0.250000 0.718498
v 0.946615 0.000000 0.680677
v 0.946615 0.250000 0.680677
v 0.889821 0.000000 0.652042
v 0.889821 0.250000 0.652042
v 0.829005 0.000000 0.633417
v 0.829005 0.250000 0.633417
v 0.765915 0.000000 0.625338
v 0.765915 0.250000 0.625338
v 0.702368 0.000000 0.628037
v 0.702368 0.250000 0.628037
v 0.640191 0.000000 0.641437
v 0.640191 0.250000 0.641437
v 0.581174 0.000000 0.665153
v 0.581174 0.250000 0.665153
v 0.527013 0.000000 0.698501
v 0.527013 0.250000 0.698501
v 0.479266 0.000000 0.740523
v 0.479266 0.250000 0.740523
v 0.439309 0.000000 0.790009
v 0.439309 0.250000 0.790009
v 0.408289 0.000000 0.845537
v 0.408289 0.250000 0.845537
v 0.387100 0.000000 0.905508
v 0.387100 0.250000 0.905508
v 0.376351 0.000000 0.968198
v 0.376351 0.250000 0.968198
v 0.376351 0.000000 1.031802
v 0.376351 0.250000 1.031802
v 0.387100 0.000000 1.094492
v 0.387100 0.250000 1.094492
v 0.408289 0.000000 1.154463
v 0.408289 0.250000 1.154463
v 0.439309 0.000000 1.209991
v 0.439309 0.250000 1.209991
v 0.479266 0.000000 1.259477
v 0.479266 0.250000 1.259477
v 0.527013 0.000000 1.301499
v 0.527013 0.250000 1.301499
v 0.581174 0.000000 1.334847
v 0.581174 0.250000 1.334847
v 0.640191 0.000000 1.358562
v 0.640191 0.250000 1.358562
v 0.702368 0.000000 1.371963
v 0.702368 0.250000 1.371963
v 0.765915 0.000000 1.374662
v 0.765915 0.250000 1.374662
v 0.829005 0.000000 1.366583
v 0.829005 0.250000 1.366583
v 0.889821 0.000000 1.347958
v 0.889821 0.250000 1.347958
v 0.946615 0.000000 1.319323
v 0.946615 0.250000 1.319323
v 0.997753 0.000000 1.281502
v 0.997753 0.250000 1.281502
v 1.041763 0.000000 1.235583
v 1.041763 0.250000 1.235583
v 1.077380 0.000000 1.182886
v 1.077380 0.250000 1.182886
v 1.103579 0.000000 1.124927
v 1.103579 0.250000 1.124927
v 1.119606 0.000000 3.563375
v 1.119606 0.250000 3.563375
v 1.125000 0.000000 3.500000
v 1.125000 0.250000 3.500000
v 1.119606 0.000000 3.436625
v 1.119606 0.250000 3.436625
v 1.103579 0.000000 3.375073
v 1.103579 0.250000 3.375073
v 1.077380 0.000000 3.317114
v 1.077380 0.250000 3.317114
v 1.041763 0.000000 3.264417
v 1.041763 0.250000 3.264417
v 0.997753 0.000000 3.218498
v 0.997753 0.250000 3.218498
v 0.946615 0.000000 3.180677
v 0.946615 0.250000 3.180677
v 0.889821 0.000000 3.152042
v 0.889821 0.250000 3.152042
v 0.829005 0.000000 3.133417
v 0.829005 0.250000 3.133417
v 0.765915 0.000000 3.125338
v 0.765915 0.250000 3.125338
v 0.702368 0.000000 3.128037
v 0.702368 0.250000 3.128037
v 0.640191 0.000000 3.141438
v 0.640191 0.250000 3.141438
v 0.581174 0.000000 3.165153
v 0.581174 0.250000 3.165153
v 0.527013 0.000000 3.198501
v 0.527013 0.250000 3.198501
v 0.479266 0.000000 3.240523
v 0.479266 0.250000 3.240523
v 0.439309 0.000000 3.290010
v 0.439309 0.250000 3.290010
v 0.408289 0.000000 3.345537
v 0.408289 0.250000 3.345537
v 0.387100 0.000000 3.405508
v 0.387100 0.250000 3.405508
v 0.376351 0.000000 3.468198
v 0.376351 0.250000 3.468198
v 0.376351 0.000000 3.531802
v 0.376351 0.250000 3.531802
v 0.387100 0.000000 3.594492
v 0.387100 0.250000 3.594492
v 0.408289 0.000000 3.654463
v 0.408289 0.250000 3.654463
v 0.439309 0.000000 3.709991
v 0.439309 0.250000 3.709991
v 0.479266 0.000000 3.759477
v 0.479266 0.250000 3.759477
v 0.527013 0.000000 3.801499
v 0.527013 0.250000 3.801499
v 0.581174 0.000000 3.834847
v 0.581174 0.250000 3.834847
v 0.640191 0.000000 3.858563
v 0.640191 0.250000 3.858563
v 0.702368 0.000000 3.871962
v 0.702368 0.250000 3.871962
v 0.765915 0.000000 3.874662
v 0.765915 0.250000 3.874662
v 0.829005 0.000000 3.866583
v 0.829005 0.250000 3.866583
v 0.889821 0.000000 3.847958
v 0.889821 0.250000 3.847958
v 0.946615 0.000000 3.819324
v 0.946615 0.250000 3.819324
v 0.997753 0.000000 3.781502
v 0.997753 0.250000 3.781502
v 1.041763 0.000000 3.735582
v 1.041763 0.250000 3.735582
v 1.077380 0.000000 3.682886
v 1.077380 0.250000 3.682886
v 1.103579 0.000000 3.624927
v 1.103579 0.250000 3.624927
v 6.119606 0.000000 1.063375
v 6.119606 0.250000 1.063375
v 6.125000 0.000000 1.000000
v 6.125000 0.250000 1.000000
v 6.119606 0.000000 0.936625
v 6.119606 0.250000 0.936625
v 6.103579 0.000000 0.875073
v 6.103579 0.250000 0.875073
v 6.077380 0.000000 0.817114
v 6.077380 0.250000 0.817114
v 6.041763 0.000000 0.764418
v 6.041763 0.250000 0.764418
v 5.997753 0.000000 0.718498
v 5.997753 0.250000 0.718498
v 5.946615 0.000000 0.680677
v 5.946615 0.250000 0.680677
v 5.889821 0.000000 0.652042
v 5.889821 0.250000 0.652042
v 5.829005 0.000000 0.633417
v 5.829005 0.250000 0.633417
v 5.765915 0.000000 0.625338
v 5.765915 0.250000 0.625338
v 5.702368 0.000000 0.628037
v 5.702368 0.250000 0.628037
v 5.640192 0.000000 0.641437
v 5.640192 0.250000 0.641437
v 5.581174 0.000000 0.665153
v 5.581174 0.250000 0.665153
v 5.527012 0.000000 0.698501
v 5.527012 0.250000 0.698501
v 5.479267 0.000000 0.740523
v 5.479267 0.250000 0.740523
v 5.439308 0.000000 0.790009
v 5.439308 0.250000 0.790009
v 5.408289 0.000000 0.845537
v 5.408289 0.250000 0.845537
v 5.387100 0.000000 0.905508
v 5.387100 0.250000 0.905508
v 5.376351 0.000000 0.968198
v 5.376351 0.250000 0.968198
v 5.376351 0.000000 1.031802
v 5.376351 0.250000 1.031802
v 5.387100 0.000000 1.094492
v 5.387100 0.250000 1.094492
v 5.408289 0.000000 1.154463
v 5.408289 0.250000 1.154463
v 5.439308 0.000000 1.209991
v 5.439308 0.250000 1.209991
v 5.479267 0.000000 1.259477
v 5.479267 0.250000 1.259477
v 5.527012 0.000000 1.301499
v 5.527012 0.250000 1.301499
v 5.581174 0.000000 1.334847
v 5.581174 0.250000 1.334847
v 5.640192 0.000000 1.358562
v 5.640192 0.250000 1.358562
v 5.702368 0.000000 1.371963
v 5.702368 0.250000 1.371963
v 5.765915 0.000000 1.374662
v 5.765915 0.250000 1.374662
v 5.829005 0.000000 1.366583
v 5.829005 0.250000 1.366583
v 5.889821 0.000000 1.347958
v 5.889821 0.250000 1.347958
v 5.946615 0.000000 1.319323
v 5.946615 0.250000 1.319323
v 5.997753 0.000000 1.281502
v 5.997753 0.250000 1.281502
v 6.041763 0.000000 1.235583
v 6.041763 0.250000 1.235583
v 6.077380 0.000000 1.182886
v 6.077380 0.250000 1.182886
v 6.103579 0.000000 1.124927
v 6.103579 0.250000 1.124927
v 6.119606 0.000000 3.563375
v 6.119606 0.250000 3.563375
v 6.125000 0.000000 3.500000
v 6.125000 0.250000 3.500000
v 6.119606 0.000000 3.436625
v 6.119606 0.250000 3.436625
v 6.103579 0.000000 3.375073
v 6.103579 0.250000 3.375073
v 6.077380 0.000000 3.317114
v 6.077380 0.250000 3.317114
v 6.041763 0.000000 3.264417
v 6.041763 0.250000 3.264417
v 5.997753 0.000000 3.218498
v 5.997753 0.250000 3.218498
v 5.946615 0.000000 3.180677
v 5.946615 0.250000 3.180677
v 5.889821 0.000000 3.152042
v 5.889821 0.250000 3.152042
v 5.829005 0.000000 3.133417
v 5.829005 0.250000 3.133417
v 5.765915 0.000000 3.125338
v 5.765915 0.250000 3.125338
v 5.702368 0.000000 3.128037
v 5.702368 0.250000 3.128037
v 5.640192 0.000000 3.141438
v 5.640192 0.250000 3.141438
v 5.581174 0.000000 3.165153
v 5.581174 0.250000 3.165153
v 5.527012 0.000000 3.198501
v 5.527012 0.250000 3.198501
v 5.479267 0.000000 3.240523
v 5.479267 0.250000 3.240523
v 5.439308 0.000000 3.290010
v 5.439308 0.250000 3.290010
v 5.408289 0.000000 3.345537
v 5.408289 0.250000 3.345537
v 5.387100 0.000000 3.405508
v 5.387100 0.250000 3.405508
v 5.376351 0.000000 3.468198
v 5.376351 0.250000 3.468198
v 5.376351 0.000000 3.531802
v 5.376351 0.250000 3.531802
v 5.387100 0.000000 3.594492
v 5.387100 0.250000 3.594492
v 5.408289 0.000000 3.654463
v 5.408289 0.250000 3.654463
v 5.439308 0.000000 3.709991
v 5.439308 0.250000 3.709991
v 5.479267 0.000000 3.759477
v 5.479267 0.250000 3.759477
v 5.527012 0.000000 3.801499
v 5.527012 0.250000 3.801499
v 5.581174 0.000000 3.834847
v 5.581174 0.250000 3.834847
v 5.640192 0.000000 3.858563
v 5.640192 0.250000 3.858563
v 5.702368 0.000000 3.871962
v 5.702368 0.250000 3.871962
v 5.765915 0.000000 3.874662
v 5.765915 0.250000 3.874662
v 5.829005 0.000000 3.866583
v 5.829005 0.250000 3.866583
v 5.889821 0.000000 3.847958
v 5.889821 0.250000 3.847958
v 5.946615 0.000000 3.819324
v 5.946615 0.250000 3.819324
v 5.997753 0.000000 3.781502
v 5.997753 0.250000 3.781502
v 6.041763 0.000000 3.735582
v 6.041763 0.250000 3.735582
v 6.077380 0.000000 3.682886
v 6.077380 0.250000 3.682886
v 6.103579 0.000000 3.624927
v 6.103579 0.250000 3.624927
v 2.375000 3.338346 2.254869
v 2.125000 3.338346 2.254869
v 2.375000 3.343750 2.200000
v 2.125000 3.343750 2.200000
v 2.375000 3.338346 2.145131
v 2.125000 3.338346 2.145131
v 2.375000 3.322341 2.092370
v 2.125000 3.322341 2.092370
v 2.375000 3.296351 2.043746
v 2.125000 3.296351 2.043746
v 2.375000 3.261374 2.001126
v 2.125000 3.261374 2.001126
v 2.375000 3.218754 1.966149
v 2.125000 3.218754 1.966149
v 2.375000 3.170130 1.940159
v 2.125000 3.170130 1.940159
v 2.375000 3.117369 1.924154
v 2.125000 3.117369 1.924154
v 2.375000 3.062500 1.918750
v 2.125000 3.062500 1.918750
v 2.375000 3.007631 1.924154
v 2.125000 3.007631 1.924154
v 2.375000 2.954870 1.940159
v 2.125000 2.954870 1.940159
v 2.375000 2.906246 1.966149
v 2.125000 2.906246 1.966149
v 2.375000 2.863626 2.001126
v 2.125000 2.863626 2.001126
v 2.375000 2.828649 2.043746
v 2.125000 2.828649 2.043746
v 2.375000 2.802659 2.092370
v 2.125000 2.802659 2.092370
v 2.375000 2.786654 2.145131
v 2.125000 2.786654 2.145131
v 2.375000 2.781250 2.200000
v 2.125000 2.781250 2.200000
v 2.375000 2.786654 2.254869
v 2.125000 2.786654 2.254869
v 2.375000 2.802659 2.307630
v 2.125000 2.802659 2.307630
v 2.375000 2.828649 2.356254
v 2.125000 2.828649 2.356254
v 2.375000 2.863626 2.398874
v 2.125000 2.863626 2.398874
v 2.375000 2.906246 2.433851
v 2.125000 2.906246 2.433851
v 2.375000 2.954870 2.459841
v 2.125000 2.954870 2.459841
v 2.375000 3.007631 2.475846
v 2.125000 3.007631 2.475846
v 2.375000 3.062500 2.481250
v 2.125000 3.062500 2.481250
v 2.375000 3.117369 2.475846
v 2.125000 3.117369 2.475846
v 2.375000 3.170130 2.459841
v 2.125000 3.170130 2.459841
v 2.375000 3.218754 2.433851
v 2.125000 3.218754 2.433851
v 2.375000 3.261374 2.398874
v 2.125000 3.261374 2.398874
v 2.375000 3.296351 2.356254
v 2.125000 3.296351 2.356254
v 2.375000 3.322341 2.307630
v 2.125000 3.322341 2.307630
v 3.600846 3.117369 3.500000
v 3.600846 3.117369 3.250000
v 3.606250 3.062500 3.500000
v 3.606250 3.062500 3.250000
v 3.600846 3.007631 3.500000
v 3.600846 3.007631 3.250000
v 3.584841 2.954870 3.500000
v 3.584841 2.954870 3.250000
v 3.558851 2.906246 3.500000
v 3.558851 2.906246 3.250000
v 3.523874 2.863626 3.500000
v 3.523874 2.863626 3.250000
v 3.481254 2.828649 3.500000
v 3.481254 2.828649 3.250000
v 3.432630 2.802659 3.500000
v 3.432630 2.802659 3.250000
v 3.379869 2.786654 3.500000
v 3.379869 2.786654 3.250000
v 3.325000 2.781250 3.500000
v 3.325000 2.781250 3.250000
v 3.270131 2.786654 3.500000
v 3.270131 2.786654 3.250000
v 3.217370 2.802659 3.500000
v 3.217370 2.802659 3.250000
v 3.168746 2.828649 3.500000
v 3.168746 2.828649 3.250000
v 3.126126 2.863626 3.500000
v 3.126126 2.863626 3.250000
v 3.091149 2.906246 3.500000
v 3.091149 2.906246 3.250000
v 3.065159 2.954870 3.500000
v 3.065159 2.954870 3.250000
v 3.049154 3.007631 3.500000
v 3.049154 3.007631 3.250000
v 3.043750 3.062500 3.500000
v 3.043750 3.062500 3.250000
v 3.049154 3.117369 3.500000
v 3.049154 3.117369 3.250000
v 3.065159 3.170130 3.500000
v 3.065159 3.170130 3.250000
v 3.091149 3.218754 3.500000
v 3.091149 3.218754 3.250000
v 3.126126 3.261374 3.500000
v 3.126126 3.261374 3.250000
v 3.168746 3.296351 3.500000
v 3.168746 3.296351 3.250000
v 3.217370 3.322341 3.500000
v 3.217370 3.322341 3.250000
v 3.270131 3.338346 3.500000
v 3.270131 3.338346 3.250000
v 3.325000 3.343750 3.500000
v 3.325000 3.343750 3.250000
v 3.379869 3.338346 3.500000
v 3.379869 3.338346 3.250000
v 3.432630 3.322341 3.500000
v 3.432630 3.322341 3.250000
v 3.481254 3.296351 3.500000
v 3.481254 3.296351 3.250000
v 3.523874 3.261374 3.500000
v 3.523874 3.261374 3.250000
v 3.558851 3.218754 3.500000
v 3.558851 3.218754 3.250000
v 3.584841 3.170130 3.500000
v 3.584841 3.170130 3.250000
v 3.049154 3.007631 1.250000
v 3.049154 3.007631 1.000000
v 3.043750 3.062500 1.250000
v 3.043750 3.062500 1.000000
v 3.049154 3.117369 1.250000
v 3.049154 3.117369 1.000000
v 3.065159 3.170130 1.250000
v 3.065159 3.170130 1.000000
v 3.091149 3.218754 1.250000
v 3.091149 3.218754 1.000000
v 3.126126 3.261374 1.250000
v 3.126126 3.261374 1.000000
v 3.168746 3.296351 1.250000
v 3.168746 3.296351 1.000000
v 3.217370 3.322341 1.250000
v 3.217370 3.322341 1.000000
v 3.270131 3.338346 1.250000
v 3.270131 3.338346 1.000000
v 3.325000 3.343750 1.250000
v 3.325000 3.343750 1.000000
v 3.379869 3.338346 1.250000
v 3.379869 3.338346 1.000000
v 3.432630 3.322341 1.250000
v 3.432630 3.322341 1.000000
v 3.481254 3.296351 1.250000
v 3.481254 3.296351 1.000000
v 3.523874 3.261374 1.250000
v 3.523874 3.261374 1.000000
v 3.558851 3.218754 1.250000
v 3.558851 3.218754 1.000000
v 3.584841 3.170130 1.250000
v 3.584841 3.170130 1.000000
v 3.600846 3.117369 1.250000
v 3.600846 3.117369 1.000000
v 3.606250 3.062500 1.250000
v 3.606250 3.062500 1.000000
v 3.600846 3.007631 1.250000
v 3.600846 3.007631 1.000000
v 3.584841 2.954870 1.250000
v 3.584841 2.954870 1.000000
v 3.558851 2.906246 1.250000
v 3.558851 2.906246 1.000000
v 3.523874 2.863626 1.250000
v 3.523874 2.863626 1.000000
v 3.481254 2.828649 1.250000
v 3.481254 2.828649 1.000000
v 3.432630 2.802659 1.250000
v 3.432630 2.802659 1.000000
v 3.379869 2.786654 1.250000
v 3.379869 2.786654 1.000000
v 3.325000 2.781250 1.250000
v 3.325000 2.781250 1.000000
v 3.270131 2.786654 1.250000
v 3.270131 2.786654 1.000000
v 3.217370 2.802659 1.250000
v 3.217370 2.802659 1.000000
v 3.168746 2.828649 1.250000
v 3.168746 2.828649 1.000000
v 3.126126 2.863626 1.250000
v 3.126126 2.863626 1.000000
v 3.091149 2.906246 1.250000
v 3.091149 2.906246 1.000000
v 3.065159 2.954870 1.250000
v 3.065159 2.954870 1.000000
v 3.049154 1.242369 1.000000
v 3.043750 1.187500 1.000000
v 2.325000 0.250000 1.000000
v 3.049154 1.132631 1.000000
v 3.065159 1.079870 1.000000
v 3.091149 1.031246 1.000000
v 3.126126 0.988626 1.000000
v 3.168746 0.953649 1.000000
v 3.217370 0.927659 1.000000
v 3.270131 0.911654 1.000000
v 3.325000 0.906250 1.000000
v 4.375000 0.250000 1.000000
v 3.379869 0.911654 1.000000
v 3.432630 0.927659 1.000000
v 3.481254 0.953649 1.000000
v 3.523874 0.988626 1.000000
v 3.558851 1.031246 1.000000
v 3.584841 1.079870 1.000000
v 3.600846 1.132631 1.000000
v 3.606250 1.187500 1.000000
v 3.600846 1.242369 1.000000
v 4.375000 4.000000 1.000000
v 3.584841 1.295130 1.000000
v 3.558851 1.343754 1.000000
v 3.523874 1.386374 1.000000
v 3.481254 1.421351 1.000000
v 3.432630 1.447341 1.000000
v 3.379869 1.463346 1.000000
v 3.325000 1.468750 1.000000
v 3.270131 1.463346 1.000000
v 3.217370 1.447341 1.000000
v 3.168746 1.421351 1.000000
v 3.126126 1.386374 1.000000
v 3.091149 1.343754 1.000000
v 3.065159 1.295130 1.000000
v 2.325000 4.000000 1.000000
v 4.375000 0.250000 1.250000
v 4.375000 4.000000 1.250000
v 3.049154 1.132631 1.250000
v 3.043750 1.187500 1.250000
v 2.475000 0.250000 1.250000
v 3.049154 1.242369 1.250000
v 3.065159 1.295130 1.250000
v 3.091149 1.343754 1.250000
v 3.126126 1.386374 1.250000
v 3.168746 1.421351 1.250000
v 3.217370 1.447341 1.250000
v 3.270131 1.463346 1.250000
v 3.325000 1.468750 1.250000
v 3.379869 1.463346 1.250000
v 3.432630 1.447341 1.250000
v 3.481254 1.421351 1.250000
v 3.523874 1.386374 1.250000
v 3.558851 1.343754 1.250000
v 3.584841 1.295130 1.250000
v 3.600846 1.242369 1.250000
v 3.606250 1.187500 1.250000
v 3.600846 1.132631 1.250000
v 3.584841 1.079870 1.250000
v 3.558851 1.031246 1.250000
v 3.523874 0.988626 1.250000
v 3.481254 0.953649 1.250000
v 3.432630 0.927659 1.250000
v 3.379869 0.911654 1.250000
v 3.325000 0.906250 1.250000
v 3.270131 0.911654 1.250000
v 3.217370 0.927659 1.250000
v 3.168746 0.953649 1.250000
v 3.126126 0.988626 1.250000
v 3.091149 1.031246 1.250000
v 3.065159 1.079870 1.250000
v 2.475000 4.000000 1.250000
v 2.378407 0.250000 1.324118
v 2.378407 0.785714 1.324118
v 2.375000 0.250000 1.350000
v 2.378407 1.321428 1.324118
v 2.378407 1.857143 1.324118
v 2.388398 1.857143 1.300000
v 2.388398 2.392857 1.300000
v 2.404289 2.392857 1.279289
v 2.404289 2.928571 1.279289
v 2.425000 2.928571 1.263397
v 2.425000 3.464286 1.263397
v 2.449118 3.464286 1.253407
v 2.449118 4.000000 1.253407
v 2.449118 2.928571 1.253407
v 2.449118 2.392857 1.253407
v 2.425000 2.392857 1.263397
v 2.425000 1.857143 1.263397
v 2.404289 1.857143 1.279289
v 2.404289 1.321428 1.279289
v 2.388398 1.321428 1.300000
v 2.388398 0.785714 1.300000
v 2.388398 0.250000 1.300000
v 2.404289 0.785714 1.279289
v 2.425000 1.321428 1.263397
v 2.449118 1.857143 1.253407
v 2.404289 0.250000 1.279289
v 2.425000 0.785714 1.263397
v 2.449118 1.321428 1.253407
v 2.425000 0.250000 1.263397
v 2.449118 0.785714 1.253407
v 2.449118 0.250000 1.253407
v 2.425000 4.000000 1.263397
v 2.404289 3.464286 1.279289
v 2.388398 2.928571 1.300000
v 2.378407 2.392857 1.324118
v 2.404289 4.000000 1.279289
v 2.388398 3.464286 1.300000
v 2.378407 2.928571 1.324118
v 2.375000 4.000000 1.350000
v 2.388398 4.000000 1.300000
v 2.378407 3.464286 1.324118
v 2.378407 4.000000 1.324118
v 2.375000 1.463346 2.254869
v 2.375000 1.468750 2.200000
v 2.375000 1.463346 2.145131
v 2.375000 1.447341 2.092370
v 2.375000 1.421351 2.043746
v 2.375000 1.386374 2.001126
v 2.375000 1.343754 1.966149
v 2.375000 1.295130 1.940159
v 2.375000 1.242369 1.924154
v 2.375000 1.187500 1.918750
v 2.375000 1.132631 1.924154
v 2.375000 1.079870 1.940159
v 2.375000 1.031246 1.966149
v 2.375000 0.988626 2.001126
v 2.375000 0.953649 2.043746
v 2.375000 0.927659 2.092370
v 2.375000 0.911654 2.145131
v 2.375000 0.906250 2.200000
v 2.375000 0.250000 3.150000
v 2.375000 0.911654 2.254869
v 2.375000 0.927659 2.307630
v 2.375000 0.953649 2.356254
v 2.375000 0.988626 2.398874
v 2.375000 1.031246 2.433851
v 2.375000 1.079870 2.459841
v 2.375000 1.132631 2.475846
v 2.375000 1.187500 2.481250
v 2.375000 1.242369 2.475846
v 2.375000 4.000000 3.150000
v 2.375000 1.295130 2.459841
v 2.375000 1.343754 2.433851
v 2.375000 1.386374 2.398874
v 2.375000 1.421351 2.356254
v 2.375000 1.447341 2.307630
v 2.449118 0.250000 3.246592
v 2.449118 0.785714 3.246592
v 2.475000 0.250000 3.250000
v 2.449118 1.321428 3.246592
v 2.449118 1.857143 3.246592
v 2.425000 1.857143 3.236602
v 2.425000 2.392857 3.236602
v 2.404289 2.392857 3.220711
v 2.404289 2.928571 3.220711
v 2.388398 2.928571 3.200000
v 2.388398 3.464286 3.200000
v 2.378407 3.464286 3.175882
v 2.378407 4.000000 3.175882
v 2.378407 2.928571 3.175882
v 2.378407 2.392857 3.175882
v 2.388398 2.392857 3.200000
v 2.388398 1.857143 3.200000
v 2.404289 1.857143 3.220711
v 2.404289 1.321428 3.220711
v 2.425000 1.321428 3.236602
v 2.425000 0.785714 3.236602
v 2.425000 0.250000 3.236602
v 2.404289 0.785714 3.220711
v 2.388398 1.321428 3.200000
v 2.378407 1.857143 3.175882
v 2.404289 0.250000 3.220711
v 2.388398 0.785714 3.200000
v 2.378407 1.321428 3.175882
v 2.388398 0.250000 3.200000
v 2.378407 0.785714 3.175882
v 2.378407 0.250000 3.175882
v 2.388398 4.000000 3.200000
v 2.404289 3.464286 3.220711
v 2.425000 2.928571 3.236602
v 2.449118 2.392857 3.246592
v 2.404289 4.000000 3.220711
v 2.425000 3.464286 3.236602
v 2.449118 2.928571 3.246592
v 2.475000 4.000000 3.250000
v 2.425000 4.000000 3.236602
v 2.449118 3.464286 3.246592
v 2.449118 4.000000 3.246592
v 3.049154 1.242369 3.250000
v 3.043750 1.187500 3.250000
v 3.049154 1.132631 3.250000
v 3.065159 1.079870 3.250000
v 3.091149 1.031246 3.250000
v 3.126126 0.988626 3.250000
v 3.168746 0.953649 3.250000
v 3.217370 0.927659 3.250000
v 3.270131 0.911654 3.250000
v 3.325000 0.906250 3.250000
v 4.375000 0.250000 3.250000
v 3.379869 0.911654 3.250000
v 3.432630 0.927659 3.250000
v 3.481254 0.953649 3.250000
v 3.523874 0.988626 3.250000
v 3.558851 1.031246 3.250000
v 3.584841 1.079870 3.250000
v 3.600846 1.132631 3.250000
v 3.606250 1.187500 3.250000
v 3.600846 1.242369 3.250000
v 4.375000 4.000000 3.250000
v 3.584841 1.295130 3.250000
v 3.558851 1.343754 3.250000
v 3.523874 1.386374 3.250000
v 3.481254 1.421351 3.250000
v 3.432630 1.447341 3.250000
v 3.379869 1.463346 3.250000
v 3.325000 1.468750 3.250000
v 3.270131 1.463346 3.250000
v 3.217370 1.447341 3.250000
v 3.168746 1.421351 3.250000
v 3.126126 1.386374 3.250000
v 3.091149 1.343754 3.250000
v 3.065159 1.295130 3.250000
v 4.375000 0.250000 3.500000
v 4.375000 4.000000 3.500000
v 3.600846 1.242369 3.500000
v 3.606250 1.187500 3.500000
v 3.600846 1.132631 3.500000
v 3.584841 1.079870 3.500000
v 3.558851 1.031246 3.500000
v 3.523874 0.988626 3.500000
v 3.481254 0.953649 3.500000
v 3.432630 0.927659 3.500000
v 3.379869 0.911654 3.500000
v 3.325000 0.906250 3.500000
v 2.325000 0.250000 3.500000
v 3.270131 0.911654 3.500000
v 3.217370 0.927659 3.500000
v 3.168746 0.953649 3.500000
v 3.126126 0.988626 3.500000
v 3.091149 1.031246 3.500000
v 3.065159 1.079870 3.500000
v 3.049154 1.132631 3.500000
v 3.043750 1.187500 3.500000
v 3.049154 1.242369 3.500000
v 2.325000 4.000000 3.500000
v 3.065159 1.295130 3.500000
v 3.091149 1.343754 3.500000
v 3.126126 1.386374 3.500000
v 3.168746 1.421351 3.500000
v 3.217370 1.447341 3.500000
v 3.270131 1.463346 3.500000
v 3.325000 1.468750 3.500000
v 3.379869 1.463346 3.500000
v 3.432630 1.447341 3.500000
v 3.481254 1.421351 3.500000
v 3.523874 1.386374 3.500000
v 3.558851 1.343754 3.500000
v 3.584841 1.295130 3.500000
v 2.130015 0.250000 3.344504
v 2.126352 1.187500 3.323219
v 2.125000 0.250000 3.300000
v 2.126352 2.125000 3.323219
v 2.125000 4.000000 3.300000
v 2.126352 3.062500 3.323219
v 2.130015 4.000000 3.344504
v 2.137061 3.062500 3.368404
v 2.144806 4.000000 3.386777
v 2.157903 3.062500 3.409902
v 2.168634 4.000000 3.424698
v 2.187752 3.062500 3.445475
v 2.200302 4.000000 3.456366
v 2.225000 3.062500 3.473205
v 2.238223 4.000000 3.480194
v 2.267639 3.062500 3.491598
v 2.280496 4.000000 3.494985
v 2.313371 3.062500 3.499662
v 2.313371 2.125000 3.499662
v 2.313371 1.187500 3.499662
v 2.280496 0.250000 3.494985
v 2.267639 1.187500 3.491598
v 2.238223 0.250000 3.480194
v 2.225000 1.187500 3.473205
v 2.200302 0.250000 3.456366
v 2.187752 1.187500 3.445475
v 2.168634 0.250000 3.424698
v 2.157903 1.187500 3.409902
v 2.144806 0.250000 3.386777
v 2.137061 1.187500 3.368404
v 2.137061 2.125000 3.368404
v 2.157903 2.125000 3.409902
v 2.187752 2.125000 3.445475
v 2.225000 2.125000 3.473205
v 2.267639 2.125000 3.491598
v 2.125000 0.911654 2.145131
v 2.125000 0.250000 1.200000
v 2.125000 0.906250 2.200000
v 2.125000 0.911654 2.254869
v 2.125000 0.927659 2.307630
v 2.125000 0.953649 2.356254
v 2.125000 0.988626 2.398874
v 2.125000 1.031246 2.433851
v 2.125000 1.079870 2.459841
v 2.125000 1.132631 2.475846
v 2.125000 1.187500 2.481250
v 2.125000 1.242369 2.475846
v 2.125000 1.295130 2.459841
v 2.125000 1.343754 2.433851
v 2.125000 0.927659 2.092370
v 2.125000 0.953649 2.043746
v 2.125000 0.988626 2.001126
v 2.125000 1.031246 1.966149
v 2.125000 1.079870 1.940159
v 2.125000 1.132631 1.924154
v 2.125000 1.187500 1.918750
v 2.125000 1.242369 1.924154
v 2.125000 1.295130 1.940159
v 2.125000 1.343754 1.966149
v 2.125000 1.386374 2.001126
v 2.125000 1.421351 2.043746
v 2.125000 1.447341 2.092370
v 2.125000 1.463346 2.145131
v 2.125000 1.468750 2.200000
v 2.125000 1.463346 2.254869
v 2.125000 1.447341 2.307630
v 2.125000 1.421351 2.356254
v 2.125000 1.386374 2.398874
v 2.125000 4.000000 1.200000
v 2.280496 0.250000 1.005014
v 2.301781 1.187500 1.001352
v 2.301781 2.125000 1.001352
v 2.301781 3.062500 1.001352
v 2.280496 4.000000 1.005014
v 2.256596 3.062500 1.012061
v 2.238223 4.000000 1.019806
v 2.215098 3.062500 1.032902
v 2.200302 4.000000 1.043634
v 2.179525 3.062500 1.062752
v 2.168634 4.000000 1.075302
v 2.151795 3.062500 1.100000
v 2.144806 4.000000 1.113223
v 2.133402 3.062500 1.142639
v 2.130015 4.000000 1.155496
v 2.125338 3.062500 1.188371
v 2.125338 2.125000 1.188371
v 2.125338 1.187500 1.188371
v 2.130015 0.250000 1.155496
v 2.133402 1.187500 1.142639
v 2.144806 0.250000 1.113223
v 2.151795 1.187500 1.100000
v 2.168634 0.250000 1.075302
v 2.179525 1.187500 1.062752
v 2.200302 0.250000 1.043634
v 2.215098 1.187500 1.032902
v 2.238223 0.250000 1.019806
v 2.256596 1.187500 1.012061
v 2.256596 2.125000 1.012061
v 2.215098 2.125000 1.032902
v 2.179525 2.125000 1.062752
v 2.151795 2.125000 1.100000
v 2.133402 2.125000 1.142639
v 6.400000 0.000000 0.000000
v 0.100000 0.000000 0.000000
v 6.400000 0.250000 0.000000
v 0.100000 0.250000 0.000000
v 6.500000 0.250000 0.100000
v 6.500000 0.000000 0.100000
v 6.496592 0.250000 0.074118
v 6.496592 0.000000 0.074118
v 6.486602 0.250000 0.050000
v 6.486602 0.000000 0.050000
v 6.470711 0.250000 0.029289
v 6.470711 0.000000 0.029289
v 6.450000 0.250000 0.013397
v 6.450000 0.000000 0.013397
v 6.425882 0.250000 0.003407
v 6.425882 0.000000 0.003407
v 6.500000 0.000000 4.400000
v 6.500000 0.250000 4.400000
v 6.400000 0.250000 4.500000
v 6.400000 0.000000 4.500000
v 6.425882 0.250000 4.496592
v 6.425882 0.000000 4.496592
v 6.450000 0.250000 4.486602
v 6.450000 0.000000 4.486602
v 6.470711 0.250000 4.470711
v 6.470711 0.000000 4.470711
v 6.486602 0.250000 4.450000
v 6.486602 0.000000 4.450000
v 6.496592 0.250000 4.425882
v 6.496592 0.000000 4.425882
v 0.100000 0.000000 4.500000
v 0.100000 0.250000 4.500000
v -0.000000 0.250000 4.400000
v -0.000000 0.000000 4.400000
v 0.003407 0.250000 4.425882
v 0.003407 0.000000 4.425882
v 0.013397 0.250000 4.450000
v 0.013397 0.000000 4.450000
v 0.029289 0.250000 4.470711
v 0.029289 0.000000 4.470711
v 0.050000 0.250000 4.486602
v 0.050000 0.000000 4.486602
v 0.074118 0.250000 4.496592
v 0.074118 0.000000 4.496592
v 0.000000 0.000000 0.100000
v 0.000000 0.250000 0.100000
v 0.074118 0.250000 0.003407
v 0.074118 0.000000 0.003407
v 0.050000 0.250000 0.013397
v 0.050000 0.000000 0.013397
v 0.029289 0.250000 0.029289
v 0.029289 0.000000 0.029289
v 0.013397 0.250000 0.050000
v 0.013397 0.000000 0.050000
v 0.003407 0.250000 0.074118
v 0.003407 0.000000 0.074118
usemtl 156,156,156
f 1 2 3
f 3 2 4
f 3 4 5
f 5 4 6
f 5 6 7
f 7 6 8
f 7 8 9
f 9 8 10
f 9 10 11
f 11 10 12
f 11 12 13
f 13 12 14
f 13 14 15
f 15 14 16
f 15 16 17
f 17 16 18
f 17 18 19
f 19 18 20
f 19 20 21
f 21 20 22
f 21 22 23
f 23 22 24
f 23 24 25
f 25 24 26
f 25 26 27
f 27 26 28
f 27 28 29
f 29 28 30
f 29 30 31
f 31 30 32
f 31 32 33
f 33 32 34
f 33 34 35
f 35 34 36
f 35 36 37
f 37 36 38
f 37 38 39
f 39 38 40
f 39 40 41
f 41 40 42
f 41 42 43
f 43 42 44
f 43 44 45
f 45 44 46
f 45 46 47
f 47 46 48
f 47 48 49
f 49 48 50
f 49 50 51
f 51 50 52
f 51 52 53
f 53 52 54
f 53 54 55
f 55 54 56
f 55 56 57
f 57 56 58
f 57 58 59
f 59 58 60
f 59 60 61
f 61 60 62
f 61 62 63
f 63 62 64
f 63 64 65
f 65 64 66
f 65 66 67
f 67 66 68
f 67 68 69
f 69 68 70
f 69 70 71
f 71 70 72
f 71 72 73
f 73 72 74
f 73 74 1
f 1 74 2
f 75 76 77
f 77 76 78
f 77 78 79
f 79 78 80
f 79 80 81
f 81 80 82
f 81 82 83
f 83 82 84
f 83 84 85
f 85 84 86
f 85 86 87
f 87 86 88
f 87 88 89
f 89 88 90
f 89 90 91
f 91 90 92
f 91 92 93
f 93 92 94
f 93 94 95
f 95 94 96
f 95 96 97
f 97 96 98
f 97 98 99
f 99 98 100
f 99 100 101
f 101 100 102
f 101 102 103
f 103 102 104
f 103 104 105
f 105 104 106
f 105 106 107
f 107 106 108
f 107 108 109
f 109 108 110
f 109 110 111
f 111 110 112
f 111 112 113
f 113 112 114
f 113 114 115
f 115 114 116
f 115 116 117
f 117 116 118
f 117 118 119
f 119 118 120
f 119 120 121
f 121 120 122
f 121 122 123
f 123 122 124
f 123 124 125
f 125 124 126
f 125 126 127
f 127 126 128
f 127 128 129
f 129 128 130
f 129 130 131
f 131 130 132
f 131 132 133
f 133 132 134
f 133 134 135
f 135 134 136
f 135 136 137
f 137 136 138
f 137 138 139
f 139 138 140
f 139 140 141
f 141 140 142
f 141 142 143
f 143 142 144
f 143 144 145
f 145 144 146
f 145 146 147
f 147 146 148
f 147 148 75
f 75 148 76
f 149 150 151
f 151 150 152
f 151 152 153
f 153 152 154
f 153 154 155
f 155 154 156
f 155 156 157
f 157 156 158
f 157 158 159
f 159 158 160
f 159 160 161
f 161 160 162
f 161 162 163
f 163 162 164
f 163 164 165
f 165 164 166
f 165 166 167
f 167 166 168
f 167 168 169
f 169 168 170
f 169 170 171
f 171 170 172
f 171 172 173
f 173 172 174
f 173 174 175
f 175 174 176
f 175 176 177
f 177 176 178
f 177 178 179
f 179 178 180
f 179 180 181
f 181 180 182
f 181 182 183
f 183 182 184
f 183 184 185
f 185 184 186
f 185 186 187
f 187 186 188
f 187 188 189
f 189 188 190
f 189 190 191
f 191 190 192
f 191 192 193
f 193 192 194
f 193 194 195
f 195 194 196
f 195 196 197
f 197 196 198
f 197 198 199
f 199 198 200
f 199 200 201
f 201 200 202
f 201 202 203
f 203 202 204
f 203 204 205
f 205 204 206
f 205 206 207
f 207 206 208
f 207 208 209
f 209 208 210
f 209 210 211
f 211 210 212
f 211 212 213
f 213 212 214
f 213 214 215
f 215 214 216
f 215 216 217
f 217 216 218
f 217 218 219
f 219 218 220
f 219 220 221
f 221 220 222
f 221 222 149
f 149 222 150
f 223 224 225
f 225 224 226
f 225 226 227
f 227 226 228
f 227 228 229
f 229 228 230
f 229 230 231
f 231 230 232
f 231 232 233
f 233 232 234
f 233 234 235
f 235 234 236
f 235 236 237
f 237 236 238
f 237 238 239
f 239 238 240
f 239 240 241
f 241 240 242
f 241 242 243
f 243 242 244
f 243 244 245
f 245 244 246
f 245 246 247
f 247 246 248
f 247 248 249
f 249 248 250
f 249 250 251
f 251 250 252
f 251 252 253
f 253 252 254
f 253 254 255
f 255 254 256
f 255 256 257
f 257 256 258
f 257 258 259
f 259 258 260
f 259 260 261
f 261 260 262
f 261 262 263
f 263 262 264
f 263 264 265
f 265 264 266
f 265 266 267
f 267 266 268
f 267 268 269
f 269 268 270
f 269 270 271
f 271 270 272
f 271 272 273
f 273 272 274
f 273 274 275
f 275 274 276
f 275 276 277
f 277 276 278
f 277 278 279
f 279 278 280
f 279 280 281
f 281 280 282
f 281 282 283
f 283 282 284
f 283 284 285
f 285 284 286
f 285 286 287
f 287 286 288
f 287 288 289
f 289 288 290
f 289 290 291
f 291 290 292
f 291 292 293
f 293 292 294
f 293 294 295
f 295 294 296
f 295 296 223
f 223 296 224
f 297 298 299
f 299 298 300
f 299 300 301
f 301 300 302
f 301 302 303
f 303 302 304
f 303 304 305
f 305 304 306
f 305 306 307
f 307 306 308
f 307 308 309
f 309 308 310
f 309 310 311
f 311 310 312
f 311 312 313
f 313 312 314
f 313 314 315
f 315 314 316
f 315 316 317
f 317 316 318
f 317 318 319
f 319 318 320
f 319 320 321
f 321 320 322
f 321 322 323
f 323 322 324
f 323 324 325
f 325 324 326
f 325 326 327
f 327 326 328
f 327 328 329
f 329 328 330
f 329 330 331
f 331 330 332
f 331 332 333
f 333 332 334
f 333 334 335
f 335 334 336
f 335 336 337
f 337 336 338
f 337 338 339
f 339 338 340
f 339 340 341
f 341 340 342
f 341 342 343
f 343 342 344
f 343 344 345
f 345 344 346
f 345 346 347
f 347 346 348
f 347 348 349
f 349 348 350
f 349 350 351
f 351 350 352
f 351 352 353
f 353 352 354
f 353 354 355
f 355 354 356
f 355 356 357
f 357 356 358
f 357 358 359
f 359 358 360
f 359 360 297
f 297 360 298
f 361 362 363
f 363 362 364
f 363 364 365
f 365 364 366
f 365 366 367
f 367 366 368
f 367 368 369
f 369 368 370
f 369 370 371
f 371 370 372
f 371 372 373
f 373 372 374
f 373 374 375
f 375 374 376
f 375 376 377
f 377 376 378
f 377 378 379
f 379 378 380
f 379 380 381
f 381 380 382
f 381 382 383
f 383 382 384
f 383 384 385
f 385 384 386
f 385 386 387
f 387 386 388
f 387 388 389
f 389 388 390
f 389 390 391
f 391 390 392
f 391 392 393
f 393 392 394
f 393 394 395
f 395 394 396
f 395 396 397
f 397 396 398
f 397 398 399
f 399 398 400
f 399 400 401
f 401 400 402
f 401 402 403
f 403 402 404
f 403 404 405
f 405 404 406
f 405 406 407
f 407 406 408
f 407 408 409
f 409 408 410
f 409 410 411
f 411 410 412
f 411 412 413
f 413 412 414
f 413 414 415
f 415 414 416
f 415 416 417
f 417 416 418
f 417 418 419
f 419 418 420
f 419 420 421
f 421 420 422
f 421 422 423
f 423 422 424
f 423 424 361
f 361 424 362
f 425 426 427
f 427 426 428
f 427 428 429
f 429 428 430
f 429 430 431
f 431 430 432
f 431 432 433
f 433 432 434
f 433 434 435
f 435 434 436
f 435 436 437
f 437 436 438
f 437 438 439
f 439 438 440
f 439 440 441
f 441 440 442
f 441 442 443
f 443 442 444
f 443 444 445
f 445 444 446
f 445 446 447
f 447 446 448
f 447 448 449
f 449 448 450
f 449 450 451
f 451 450 452
f 451 452 453
f 453 452 454
f 453 454 455
f 455 454 456
f 455 456 457
f 457 456 458
f 457 458 459
f 459 458 460
f 459 460 461
f 461 460 462
f 461 462 463
f 463 462 464
f 463 464 465
f 465 464 466
f 465 466 467
f 467 466 468
f 467 468 469
f 469 468 470
f 469 470 471
f 471 470 472
f 471 472 473
f 473 472 474
f 473 474 475
f 475 474 476
f 475 476 477
f 477 476 478
f 477 478 479
f 479 478 480
f 479 480 481
f 481 480 482
f 481 482 483
f 483 482 484
f 483 484 485
f 485 484 486
f 485 486 487
f 487 486 488
f 487 488 425
f 425 488 426
f 489 490 491
f 491 490 492
f 491 492 493
f 493 494 491
f 491 494 495
f 491 495 496
f 496 497 491
f 491 497 498
f 491 498 499
f 491 499 500
f 500 499 501
f 500 501 502
f 502 503 500
f 500 503 504
f 500 504 505
f 505 506 500
f 500 506 507
f 500 507 508
f 508 509 500
f 500 509 462
f 500 462 510
f 510 462 460
f 510 460 458
f 509 511 462
f 462 511 464
f 464 511 512
f 464 512 466
f 466 512 468
f 468 512 513
f 468 513 470
f 470 513 514
f 470 514 472
f 472 514 515
f 472 515 474
f 474 515 516
f 474 516 476
f 476 516 517
f 476 517 518
f 476 518 478
f 478 518 519
f 478 519 480
f 480 519 520
f 480 520 482
f 482 520 521
f 482 521 484
f 484 521 522
f 484 522 486
f 486 522 488
f 488 522 523
f 488 523 426
f 426 523 489
f 426 489 491
f 430 428 524
f 524 428 426
f 524 426 491
f 458 456 510
f 510 456 454
f 510 454 452
f 452 450 510
f 510 450 448
f 510 448 446
f 446 444 510
f 510 444 524
f 524 444 442
f 524 442 440
f 440 438 524
f 524 438 436
f 524 436 434
f 434 432 524
f 524 432 430
f 525 500 526
f 526 500 510
f 527 528 529
f 529 528 530
f 529 530 425
f 425 530 531
f 425 531 487
f 487 531 532
f 487 532 485
f 485 532 483
f 483 532 533
f 483 533 481
f 481 533 534
f 481 534 479
f 479 534 535
f 479 535 477
f 477 535 536
f 477 536 475
f 475 536 537
f 475 537 538
f 475 538 473
f 473 538 539
f 473 539 471
f 471 539 540
f 471 540 469
f 469 540 541
f 469 541 467
f 467 541 542
f 467 542 465
f 465 542 463
f 463 542 543
f 463 543 461
f 461 543 544
f 461 544 525
f 525 544 545
f 525 545 546
f 546 547 525
f 525 547 548
f 525 548 549
f 549 550 525
f 525 550 551
f 525 551 552
f 552 553 525
f 525 553 529
f 529 553 554
f 529 554 555
f 555 556 529
f 529 556 557
f 529 557 558
f 558 559 529
f 529 559 527
f 425 427 560
f 560 427 429
f 560 429 431
f 431 433 560
f 560 433 435
f 560 435 437
f 437 439 560
f 560 439 441
f 560 441 443
f 560 443 526
f 526 443 445
f 526 445 447
f 447 449 526
f 526 449 451
f 526 451 453
f 453 455 526
f 526 455 457
f 526 457 459
f 459 461 526
f 526 461 525
f 529 425 560
f 561 562 563
f 563 562 564
f 563 564 565
f 565 564 566
f 565 566 567
f 567 566 568
f 567 568 569
f 569 568 570
f 569 570 571
f 571 570 572
f 571 572 573
f 573 572 560
f 560 572 574
f 560 574 575
f 575 574 576
f 575 576 577
f 577 576 578
f 577 578 579
f 579 578 580
f 579 580 581
f 581 580 562
f 581 562 561
f 561 582 581
f 581 582 583
f 581 583 579
f 579 583 584
f 579 584 577
f 577 584 585
f 577 585 575
f 575 585 560
f 582 586 583
f 583 586 587
f 583 587 584
f 584 587 588
f 584 588 585
f 585 588 529
f 585 529 560
f 586 589 587
f 587 589 590
f 587 590 588
f 588 590 529
f 589 591 590
f 590 591 529
f 573 592 571
f 571 592 593
f 571 593 569
f 569 593 594
f 569 594 567
f 567 594 595
f 567 595 565
f 565 595 563
f 592 596 593
f 593 596 597
f 593 597 594
f 594 597 598
f 594 598 595
f 595 598 599
f 595 599 563
f 596 600 597
f 597 600 601
f 597 601 598
f 598 601 599
f 600 602 601
f 601 602 599
f 566 564 580
f 580 564 562
f 568 566 578
f 578 566 580
f 570 568 576
f 576 568 578
f 572 570 574
f 574 570 576
f 603 604 331
f 331 604 605
f 331 605 329
f 329 605 606
f 329 606 327
f 327 606 607
f 327 607 325
f 325 607 608
f 325 608 323
f 323 608 609
f 323 609 321
f 321 609 319
f 319 609 610
f 319 610 317
f 317 610 611
f 317 611 563
f 563 611 612
f 563 612 613
f 613 614 563
f 563 614 615
f 563 615 616
f 616 617 563
f 563 617 618
f 563 618 619
f 619 620 563
f 563 620 621
f 621 620 622
f 621 622 623
f 623 624 621
f 621 624 625
f 621 625 626
f 626 627 621
f 621 627 628
f 621 628 629
f 629 630 621
f 621 630 345
f 621 345 631
f 631 345 347
f 631 347 349
f 630 632 345
f 345 632 343
f 343 632 633
f 343 633 341
f 341 633 339
f 339 633 634
f 339 634 337
f 337 634 635
f 337 635 335
f 335 635 636
f 335 636 333
f 333 636 603
f 333 603 331
f 301 599 299
f 299 599 631
f 299 631 297
f 297 631 359
f 359 631 357
f 357 631 355
f 355 631 353
f 353 631 351
f 351 631 349
f 301 303 599
f 599 303 305
f 599 305 307
f 307 309 599
f 599 309 311
f 599 311 313
f 313 315 599
f 599 315 317
f 599 317 563
f 637 638 639
f 639 638 640
f 639 640 641
f 641 640 642
f 641 642 643
f 643 642 644
f 643 644 645
f 645 644 646
f 645 646 647
f 647 646 648
f 647 648 649
f 649 648 631
f 631 648 650
f 631 650 651
f 651 650 652
f 651 652 653
f 653 652 654
f 653 654 655
f 655 654 656
f 655 656 657
f 657 656 638
f 657 638 637
f 637 658 657
f 657 658 659
f 657 659 655
f 655 659 660
f 655 660 653
f 653 660 661
f 653 661 651
f 651 661 631
f 658 662 659
f 659 662 663
f 659 663 660
f 660 663 664
f 660 664 661
f 661 664 621
f 661 621 631
f 662 665 663
f 663 665 666
f 663 666 664
f 664 666 621
f 665 667 666
f 666 667 621
f 649 668 647
f 647 668 669
f 647 669 645
f 645 669 670
f 645 670 643
f 643 670 671
f 643 671 641
f 641 671 639
f 668 672 669
f 669 672 673
f 669 673 670
f 670 673 674
f 670 674 671
f 671 674 675
f 671 675 639
f 672 676 673
f 673 676 677
f 673 677 674
f 674 677 675
f 676 678 677
f 677 678 675
f 642 640 656
f 656 640 638
f 644 642 654
f 654 642 656
f 646 644 652
f 652 644 654
f 648 646 650
f 650 646 652
f 679 680 639
f 639 680 681
f 639 681 682
f 682 683 639
f 639 683 684
f 639 684 685
f 685 686 639
f 639 686 687
f 639 687 688
f 639 688 689
f 689 688 690
f 689 690 691
f 691 692 689
f 689 692 693
f 689 693 694
f 694 695 689
f 689 695 696
f 689 696 697
f 697 698 689
f 689 698 366
f 689 366 699
f 699 366 364
f 699 364 362
f 698 700 366
f 366 700 368
f 368 700 701
f 368 701 370
f 370 701 372
f 372 701 702
f 372 702 374
f 374 702 703
f 374 703 376
f 376 703 704
f 376 704 378
f 378 704 705
f 378 705 380
f 380 705 706
f 380 706 707
f 380 707 382
f 382 707 708
f 382 708 384
f 384 708 709
f 384 709 386
f 386 709 710
f 386 710 388
f 388 710 711
f 388 711 390
f 390 711 392
f 392 711 712
f 392 712 394
f 394 712 679
f 394 679 639
f 398 396 675
f 675 396 394
f 675 394 639
f 362 424 699
f 699 424 422
f 699 422 420
f 420 418 699
f 699 418 416
f 699 416 414
f 414 412 699
f 699 412 675
f 675 412 410
f 675 410 408
f 408 406 675
f 675 406 404
f 675 404 402
f 402 400 675
f 675 400 398
f 713 689 714
f 714 689 699
f 715 716 713
f 713 716 717
f 713 717 718
f 718 719 713
f 713 719 720
f 713 720 721
f 721 722 713
f 713 722 723
f 713 723 724
f 713 724 725
f 725 724 726
f 725 726 727
f 727 728 725
f 725 728 729
f 725 729 730
f 730 731 725
f 725 731 732
f 725 732 733
f 733 734 725
f 725 734 393
f 725 393 735
f 735 393 395
f 735 395 397
f 734 736 393
f 393 736 391
f 391 736 737
f 391 737 389
f 389 737 387
f 387 737 738
f 387 738 385
f 385 738 739
f 385 739 383
f 383 739 740
f 383 740 381
f 381 740 741
f 381 741 379
f 379 741 742
f 379 742 743
f 379 743 377
f 377 743 744
f 377 744 375
f 375 744 745
f 375 745 373
f 373 745 746
f 373 746 371
f 371 746 747
f 371 747 369
f 369 747 367
f 367 747 748
f 367 748 365
f 365 748 715
f 365 715 713
f 361 363 714
f 714 363 365
f 714 365 713
f 397 399 735
f 735 399 401
f 735 401 403
f 403 405 735
f 735 405 407
f 735 407 409
f 409 411 735
f 735 411 714
f 714 411 413
f 714 413 415
f 415 417 714
f 714 417 419
f 714 419 421
f 421 423 714
f 714 423 361
f 749 750 751
f 751 750 752
f 751 752 753
f 753 752 754
f 753 754 755
f 755 754 756
f 755 756 757
f 757 756 758
f 757 758 759
f 759 758 760
f 759 760 761
f 761 760 762
f 761 762 763
f 763 762 764
f 763 764 765
f 765 764 766
f 765 766 735
f 735 766 767
f 735 767 725
f 725 767 768
f 725 768 769
f 769 768 770
f 769 770 771
f 771 770 772
f 771 772 773
f 773 772 774
f 773 774 775
f 775 774 776
f 775 776 777
f 777 776 778
f 777 778 749
f 749 778 750
f 756 754 752
f 752 750 779
f 779 750 778
f 779 778 780
f 780 778 776
f 780 776 781
f 781 776 774
f 781 774 782
f 782 774 772
f 782 772 783
f 783 772 770
f 783 770 767
f 767 770 768
f 758 756 779
f 779 756 752
f 758 779 780
f 760 758 780
f 760 780 781
f 762 760 781
f 762 781 782
f 764 762 782
f 764 782 783
f 766 764 783
f 766 783 767
f 784 785 786
f 786 785 751
f 786 751 787
f 787 751 788
f 788 751 789
f 789 751 790
f 790 751 791
f 791 751 792
f 792 751 793
f 793 751 794
f 794 751 795
f 795 751 346
f 795 346 796
f 796 346 344
f 796 344 797
f 797 344 342
f 797 342 340
f 784 798 785
f 785 798 799
f 785 799 800
f 800 801 785
f 785 801 802
f 785 802 803
f 803 804 785
f 785 804 805
f 785 805 318
f 318 805 806
f 318 806 320
f 320 806 807
f 320 807 322
f 322 807 324
f 324 807 808
f 324 808 326
f 326 808 809
f 326 809 328
f 328 809 810
f 328 810 330
f 330 810 811
f 330 811 332
f 332 811 812
f 332 812 813
f 332 813 334
f 334 813 814
f 334 814 336
f 336 814 815
f 336 815 338
f 338 815 816
f 338 816 340
f 340 816 797
f 785 318 817
f 817 318 316
f 817 316 314
f 314 312 817
f 817 312 310
f 817 310 308
f 308 306 817
f 817 306 304
f 817 304 302
f 302 300 817
f 817 300 753
f 753 300 298
f 753 298 360
f 360 358 753
f 753 358 356
f 753 356 354
f 354 352 753
f 753 352 350
f 753 350 348
f 348 346 753
f 753 346 751
f 818 819 491
f 491 819 820
f 491 820 524
f 524 820 821
f 524 821 822
f 822 821 823
f 822 823 824
f 824 823 825
f 824 825 826
f 826 825 827
f 826 827 828
f 828 827 829
f 828 829 830
f 830 829 831
f 830 831 832
f 832 831 833
f 832 833 817
f 817 833 834
f 817 834 785
f 785 834 835
f 785 835 836
f 836 835 837
f 836 837 838
f 838 837 839
f 838 839 840
f 840 839 841
f 840 841 842
f 842 841 843
f 842 843 844
f 844 843 845
f 844 845 818
f 818 845 819
f 823 821 820
f 820 819 846
f 846 819 845
f 846 845 847
f 847 845 843
f 847 843 848
f 848 843 841
f 848 841 849
f 849 841 839
f 849 839 850
f 850 839 837
f 850 837 834
f 834 837 835
f 825 823 846
f 846 823 820
f 825 846 847
f 827 825 847
f 827 847 848
f 829 827 848
f 829 848 849
f 831 829 849
f 831 849 850
f 833 831 850
f 833 850 834
f 822 596 524
f 524 596 592
f 524 592 573
f 822 824 596
f 596 824 826
f 596 826 828
f 596 828 600
f 600 828 830
f 600 830 832
f 832 817 600
f 600 817 602
f 602 817 599
f 599 817 631
f 631 817 753
f 631 753 649
f 649 753 668
f 668 753 755
f 668 755 757
f 757 759 668
f 668 759 672
f 672 759 761
f 672 761 763
f 763 765 672
f 672 765 735
f 672 735 676
f 676 735 678
f 678 735 675
f 675 735 714
f 675 714 699
f 573 560 524
f 524 560 510
f 510 560 526
f 851 852 853
f 853 852 854
f 855 856 857
f 857 856 858
f 857 858 859
f 859 858 860
f 859 860 861
f 861 860 862
f 861 862 863
f 863 862 864
f 863 864 865
f 865 864 866
f 865 866 853
f 853 866 851
f 867 856 868
f 868 856 855
f 869 870 871
f 871 870 872
f 871 872 873
f 873 872 874
f 873 874 875
f 875 874 876
f 875 876 877
f 877 876 878
f 877 878 879
f 879 878 880
f 879 880 868
f 868 880 867
f 881 870 882
f 882 870 869
f 883 884 885
f 885 884 886
f 885 886 887
f 887 886 888
f 887 888 889
f 889 888 890
f 889 890 891
f 891 890 892
f 891 892 893
f 893 892 894
f 893 894 882
f 882 894 881
f 895 884 896
f 896 884 883
f 854 852 897
f 897 852 898
f 897 898 899
f 899 898 900
f 899 900 901
f 901 900 902
f 901 902 903
f 903 902 904
f 903 904 905
f 905 904 906
f 905 906 896
f 896 906 895
f 2 836 4
f 4 836 838
f 4 838 6
f 6 838 840
f 6 840 8
f 8 840 842
f 8 842 10
f 10 842 844
f 10 844 12
f 12 844 818
f 12 818 14
f 14 818 16
f 16 818 491
f 16 491 18
f 18 491 854
f 18 854 20
f 20 854 22
f 22 854 24
f 24 854 26
f 26 854 896
f 26 896 28
f 28 896 30
f 30 896 32
f 32 896 34
f 34 896 36
f 36 896 38
f 38 896 40
f 40 896 42
f 42 896 44
f 44 896 883
f 44 883 112
f 112 883 114
f 114 883 116
f 116 883 118
f 118 883 120
f 120 883 122
f 122 883 124
f 124 883 126
f 126 883 128
f 128 883 130
f 130 883 882
f 130 882 132
f 132 882 134
f 134 882 136
f 136 882 138
f 138 882 725
f 138 725 140
f 140 725 769
f 140 769 142
f 142 769 144
f 144 769 771
f 144 771 146
f 146 771 773
f 146 773 148
f 148 773 775
f 148 775 76
f 76 775 777
f 76 777 78
f 78 777 749
f 78 749 80
f 80 749 751
f 80 751 82
f 82 751 84
f 84 751 86
f 86 751 88
f 88 751 90
f 90 751 92
f 92 751 64
f 92 64 94
f 94 64 62
f 94 62 60
f 836 2 785
f 785 2 74
f 785 74 72
f 72 70 785
f 785 70 68
f 785 68 66
f 66 64 785
f 785 64 751
f 58 98 60
f 60 98 96
f 60 96 94
f 98 58 100
f 100 58 56
f 100 56 102
f 102 56 54
f 102 54 104
f 104 54 52
f 104 52 106
f 106 52 50
f 106 50 108
f 108 50 48
f 108 48 110
f 110 48 46
f 110 46 44
f 112 110 44
f 154 152 855
f 855 152 150
f 855 150 222
f 220 230 222
f 222 230 868
f 222 868 855
f 230 220 232
f 232 220 218
f 232 218 234
f 234 218 216
f 234 216 236
f 236 216 214
f 236 214 238
f 238 214 212
f 238 212 240
f 240 212 210
f 240 210 242
f 242 210 208
f 242 208 244
f 244 208 206
f 244 206 246
f 246 206 204
f 246 204 248
f 248 204 202
f 248 202 250
f 250 202 525
f 250 525 689
f 689 525 621
f 689 621 639
f 639 621 667
f 639 667 665
f 202 200 525
f 525 200 198
f 525 198 196
f 196 194 525
f 525 194 192
f 525 192 500
f 500 192 190
f 500 190 188
f 188 186 500
f 500 186 184
f 500 184 182
f 182 180 500
f 500 180 178
f 500 178 176
f 500 176 853
f 853 176 174
f 853 174 172
f 172 170 853
f 853 170 168
f 853 168 855
f 855 168 166
f 855 166 164
f 164 162 855
f 855 162 160
f 855 160 158
f 158 156 855
f 855 156 154
f 228 226 868
f 868 226 224
f 868 224 296
f 296 294 868
f 868 294 292
f 868 292 290
f 290 288 868
f 868 288 286
f 868 286 284
f 868 284 869
f 869 284 282
f 869 282 280
f 280 278 869
f 869 278 276
f 869 276 713
f 713 276 274
f 713 274 272
f 272 270 713
f 713 270 268
f 713 268 266
f 266 264 713
f 713 264 262
f 713 262 260
f 713 260 689
f 689 260 258
f 689 258 256
f 256 254 689
f 689 254 252
f 689 252 250
f 230 228 868
f 854 491 853
f 853 491 500
f 621 525 563
f 563 525 529
f 563 529 561
f 561 529 582
f 582 529 586
f 586 529 589
f 589 529 591
f 665 662 639
f 639 662 658
f 639 658 637
f 713 725 869
f 869 725 882
f 897 899 854
f 854 899 901
f 854 901 903
f 903 905 854
f 854 905 896
f 883 885 882
f 882 885 887
f 882 887 889
f 889 891 882
f 882 891 893
f 871 873 869
f 869 873 875
f 869 875 877
f 877 879 869
f 869 879 868
f 855 857 853
f 853 857 859
f 853 859 861
f 861 863 853
f 853 863 865
f 5 187 3
f 3 187 189
f 3 189 1
f 1 189 191
f 1 191 73
f 73 191 193
f 73 193 71
f 71 193 195
f 71 195 69
f 69 195 197
f 69 197 85
f 85 197 253
f 85 253 255
f 187 5 185
f 185 5 7
f 185 7 183
f 183 7 9
f 183 9 181
f 181 9 11
f 181 11 179
f 179 11 13
f 179 13 177
f 177 13 15
f 177 15 175
f 175 15 852
f 175 852 851
f 15 17 852
f 852 17 19
f 852 19 21
f 21 23 852
f 852 23 25
f 852 25 895
f 895 25 27
f 895 27 29
f 29 31 895
f 895 31 33
f 895 33 35
f 35 37 895
f 895 37 39
f 895 39 41
f 41 43 895
f 895 43 884
f 884 43 111
f 884 111 113
f 111 43 109
f 109 43 45
f 109 45 47
f 109 47 107
f 107 47 49
f 107 49 105
f 105 49 51
f 105 51 103
f 103 51 53
f 103 53 101
f 101 53 55
f 101 55 99
f 99 55 57
f 99 57 97
f 97 57 59
f 97 59 95
f 95 59 93
f 93 59 61
f 93 61 91
f 91 61 63
f 91 63 89
f 89 63 65
f 89 65 87
f 87 65 67
f 87 67 69
f 79 261 77
f 77 261 263
f 77 263 75
f 75 263 265
f 75 265 147
f 147 265 267
f 147 267 145
f 145 267 269
f 145 269 143
f 143 269 271
f 143 271 141
f 141 271 273
f 141 273 139
f 139 273 275
f 139 275 881
f 881 275 870
f 870 275 277
f 870 277 279
f 261 79 259
f 259 79 81
f 259 81 257
f 257 81 83
f 257 83 255
f 255 83 85
f 85 87 69
f 113 115 884
f 884 115 117
f 884 117 119
f 119 121 884
f 884 121 123
f 884 123 125
f 125 127 884
f 884 127 129
f 884 129 881
f 881 129 131
f 881 131 133
f 133 135 881
f 881 135 137
f 881 137 139
f 149 151 856
f 856 151 153
f 856 153 155
f 155 157 856
f 856 157 159
f 856 159 161
f 161 163 856
f 856 163 165
f 856 165 167
f 856 167 851
f 851 167 169
f 851 169 171
f 171 173 851
f 851 173 175
f 197 199 253
f 253 199 251
f 251 199 201
f 251 201 249
f 249 201 203
f 249 203 247
f 247 203 205
f 247 205 245
f 245 205 207
f 245 207 243
f 243 207 241
f 241 207 209
f 241 209 239
f 239 209 211
f 239 211 237
f 237 211 213
f 237 213 235
f 235 213 215
f 235 215 233
f 233 215 217
f 233 217 231
f 231 217 219
f 231 219 229
f 229 219 221
f 229 221 867
f 867 221 856
f 856 221 149
f 223 225 867
f 867 225 227
f 867 227 229
f 279 281 870
f 870 281 283
f 870 283 867
f 867 283 285
f 867 285 287
f 287 289 867
f 867 289 291
f 867 291 293
f 293 295 867
f 867 295 223
f 895 906 852
f 852 906 904
f 852 904 902
f 902 900 852
f 852 900 898
f 866 864 851
f 851 864 862
f 851 862 860
f 860 858 851
f 851 858 856
f 867 880 870
f 870 880 878
f 870 878 876
f 876 874 870
f 870 874 872
f 894 892 881
f 881 892 890
f 881 890 888
f 888 886 881
f 881 886 884
f 715 698 716
f 716 698 697
f 716 697 717
f 717 697 696
f 717 696 718
f 718 696 695
f 718 695 719
f 719 695 694
f 719 694 720
f 720 694 693
f 720 693 721
f 721 693 692
f 721 692 722
f 722 692 691
f 722 691 723
f 723 691 690
f 723 690 724
f 724 690 688
f 724 688 726
f 726 688 687
f 726 687 727
f 727 687 686
f 727 686 728
f 728 686 685
f 728 685 729
f 729 685 684
f 729 684 730
f 730 684 683
f 730 683 731
f 731 683 682
f 731 682 732
f 732 682 681
f 732 681 733
f 733 681 680
f 733 680 734
f 734 680 679
f 734 679 736
f 736 679 712
f 736 712 737
f 737 712 711
f 737 711 738
f 738 711 710
f 738 710 739
f 739 710 709
f 739 709 740
f 740 709 708
f 740 708 741
f 741 708 707
f 741 707 742
f 742 707 706
f 742 706 743
f 743 706 705
f 743 705 744
f 744 705 704
f 744 704 745
f 745 704 703
f 745 703 746
f 746 703 702
f 746 702 747
f 747 702 701
f 747 701 748
f 748 701 700
f 748 700 715
f 715 700 698
f 527 492 528
f 528 492 490
f 528 490 530
f 530 490 489
f 530 489 531
f 531 489 523
f 531 523 532
f 532 523 522
f 532 522 533
f 533 522 521
f 533 521 534
f 534 521 520
f 534 520 535
f 535 520 519
f 535 519 536
f 536 519 518
f 536 518 537
f 537 518 517
f 537 517 538
f 538 517 516
f 538 516 539
f 539 516 515
f 539 515 540
f 540 515 514
f 540 514 541
f 541 514 513
f 541 513 542
f 542 513 512
f 542 512 543
f 543 512 511
f 543 511 544
f 544 511 509
f 544 509 545
f 545 509 508
f 545 508 546
f 546 508 507
f 546 507 547
f 547 507 506
f 547 506 548
f 548 506 505
f 548 505 549
f 549 505 504
f 549 504 550
f 550 504 503
f 550 503 551
f 551 503 502
f 551 502 552
f 552 502 501
f 552 501 553
f 553 501 499
f 553 499 554
f 554 499 498
f 554 498 555
f 555 498 497
f 555 497 556
f 556 497 496
f 556 496 557
f 557 496 495
f 557 495 558
f 558 495 494
f 558 494 559
f 559 494 493
f 559 493 527
f 527 493 492
f 603 813 604
f 604 813 812
f 604 812 605
f 605 812 811
f 605 811 606
f 606 811 810
f 606 810 607
f 607 810 809
f 607 809 608
f 608 809 808
f 608 808 609
f 609 808 807
f 609 807 610
f 610 807 806
f 610 806 611
f 611 806 805
f 611 805 612
f 612 805 804
f 612 804 613
f 613 804 803
f 613 803 614
f 614 803 802
f 614 802 615
f 615 802 801
f 615 801 616
f 616 801 800
f 616 800 617
f 617 800 799
f 617 799 618
f 618 799 798
f 618 798 619
f 619 798 784
f 619 784 620
f 620 784 786
f 620 786 622
f 622 786 787
f 622 787 623
f 623 787 788
f 623 788 624
f 624 788 789
f 624 789 625
f 625 789 790
f 625 790 626
f 626 790 791
f 626 791 627
f 627 791 792
f 627 792 628
f 628 792 793
f 628 793 629
f 629 793 794
f 629 794 630
f 630 794 795
f 630 795 632
f 632 795 796
f 632 796 633
f 633 796 797
f 633 797 634
f 634 797 816
f 634 816 635
f 635 816 815
f 635 815 636
f 636 815 814
f 636 814 603
f 603 814 813
# 906 vertices
# 0 texture params
# 0 normals
# 1848 facets

# 1 groups
