# WaveFront *.obj file (generated by Autodesk ATF)

mtllib Bearings_0011.mtl

g MeshFeature1

v 0.623815 -0.038476 0.187500
v 0.623815 -0.038476 0.000000
v 0.625000 -0.000000 0.187500
v 0.625000 -0.000000 0.000000
v 0.623815 0.038476 0.187500
v 0.623815 0.038476 0.000000
v 0.620263 0.076805 0.187500
v 0.620263 0.076805 0.000000
v 0.614358 0.114843 0.187500
v 0.614358 0.114843 0.000000
v 0.606123 0.152446 0.187500
v 0.606123 0.152446 0.000000
v 0.595589 0.189470 0.187500
v 0.595589 0.189470 0.000000
v 0.582795 0.225776 0.187500
v 0.582795 0.225776 0.000000
v 0.567791 0.261225 0.187500
v 0.567791 0.261225 0.000000
v 0.550633 0.295683 0.187500
v 0.550633 0.295683 0.000000
v 0.531386 0.329020 0.187500
v 0.531386 0.329020 0.000000
v 0.510123 0.361109 0.187500
v 0.510123 0.361109 0.000000
v 0.486925 0.391827 0.187500
v 0.486925 0.391827 0.000000
v 0.461881 0.421060 0.187500
v 0.461881 0.421060 0.000000
v 0.435084 0.448695 0.187500
v 0.435084 0.448695 0.000000
v 0.406636 0.474628 0.187500
v 0.406636 0.474628 0.000000
v 0.376647 0.498761 0.187500
v 0.376647 0.498761 0.000000
v 0.345228 0.521002 0.187500
v 0.345228 0.521002 0.000000
v 0.312500 0.541266 0.187500
v 0.312500 0.541266 0.000000
v 0.278586 0.559477 0.187500
v 0.278586 0.559477 0.000000
v 0.243616 0.575566 0.187500
v 0.243616 0.575566 0.000000
v 0.207722 0.589472 0.187500
v 0.207722 0.589472 0.000000
v 0.171039 0.601141 0.187500
v 0.171039 0.601141 0.000000
v 0.133708 0.610530 0.187500
v 0.133708 0.610530 0.000000
v 0.095870 0.617603 0.187500
v 0.095870 0.617603 0.000000
v 0.057668 0.622334 0.187500
v 0.057668 0.622334 0.000000
v 0.019247 0.624704 0.187500
v 0.019247 0.624704 0.000000
v -0.019247 0.624704 0.187500
v -0.019247 0.624704 0.000000
v -0.057668 0.622334 0.187500
v -0.057668 0.622334 0.000000
v -0.095870 0.617603 0.187500
v -0.095870 0.617603 0.000000
v -0.133708 0.610530 0.187500
v -0.133708 0.610530 0.000000
v -0.171039 0.601141 0.187500
v -0.171039 0.601141 0.000000
v -0.207722 0.589472 0.187500
v -0.207722 0.589472 0.000000
v -0.243616 0.575566 0.187500
v -0.243616 0.575566 0.000000
v -0.278586 0.559477 0.187500
v -0.278586 0.559477 0.000000
v -0.312500 0.541266 0.187500
v -0.312500 0.541266 0.000000
v -0.345228 0.521002 0.187500
v -0.345228 0.521002 0.000000
v -0.376647 0.498761 0.187500
v -0.376647 0.498761 0.000000
v -0.406636 0.474628 0.187500
v -0.406636 0.474628 0.000000
v -0.435084 0.448695 0.187500
v -0.435084 0.448695 0.000000
v -0.461881 0.421060 0.187500
v -0.461881 0.421060 0.000000
v -0.486925 0.391827 0.187500
v -0.486925 0.391827 0.000000
v -0.510123 0.361109 0.187500
v -0.510123 0.361109 0.000000
v -0.531386 0.329020 0.187500
v -0.531386 0.329020 0.000000
v -0.550633 0.295683 0.187500
v -0.550633 0.295683 0.000000
v -0.567791 0.261225 0.187500
v -0.567791 0.261225 0.000000
v -0.582795 0.225776 0.187500
v -0.582795 0.225776 0.000000
v -0.595589 0.189470 0.187500
v -0.595589 0.189470 0.000000
v -0.606123 0.152446 0.187500
v -0.606123 0.152446 0.000000
v -0.614358 0.114843 0.187500
v -0.614358 0.114843 0.000000
v -0.620263 0.076805 0.187500
v -0.620263 0.076805 0.000000
v -0.623815 0.038476 0.187500
v -0.623815 0.038476 0.000000
v -0.625000 0.000000 0.187500
v -0.625000 0.000000 0.000000
v -0.623815 -0.038476 0.187500
v -0.623815 -0.038476 0.000000
v -0.620263 -0.076805 0.187500
v -0.620263 -0.076805 0.000000
v -0.614358 -0.114843 0.187500
v -0.614358 -0.114843 0.000000
v -0.606123 -0.152446 0.187500
v -0.606123 -0.152446 0.000000
v -0.595589 -0.189470 0.187500
v -0.595589 -0.189470 0.000000
v -0.582795 -0.225776 0.187500
v -0.582795 -0.225776 0.000000
v -0.567791 -0.261225 0.187500
v -0.567791 -0.261225 0.000000
v -0.550633 -0.295683 0.187500
v -0.550633 -0.295683 0.000000
v -0.531386 -0.329020 0.187500
v -0.531386 -0.329020 0.000000
v -0.510123 -0.361109 0.187500
v -0.510123 -0.361109 0.000000
v -0.486925 -0.391827 0.187500
v -0.486925 -0.391827 0.000000
v -0.461881 -0.421060 0.187500
v -0.461881 -0.421060 0.000000
v -0.435084 -0.448695 0.187500
v -0.435084 -0.448695 0.000000
v -0.406636 -0.474628 0.187500
v -0.406636 -0.474628 0.000000
v -0.376647 -0.498761 0.187500
v -0.376647 -0.498761 0.000000
v -0.345228 -0.521002 0.187500
v -0.345228 -0.521002 0.000000
v -0.312500 -0.541266 0.187500
v -0.312500 -0.541266 0.000000
v -0.278586 -0.559477 0.187500
v -0.278586 -0.559477 0.000000
v -0.243616 -0.575566 0.187500
v -0.243616 -0.575566 0.000000
v -0.207722 -0.589472 0.187500
v -0.207722 -0.589472 0.000000
v -0.171039 -0.601141 0.187500
v -0.171039 -0.601141 0.000000
v -0.133708 -0.610530 0.187500
v -0.133708 -0.610530 0.000000
v -0.095870 -0.617603 0.187500
v -0.095870 -0.617603 0.000000
v -0.057668 -0.622334 0.187500
v -0.057668 -0.622334 0.000000
v -0.019247 -0.624704 0.187500
v -0.019247 -0.624704 0.000000
v 0.019247 -0.624704 0.187500
v 0.019247 -0.624704 0.000000
v 0.057668 -0.622334 0.187500
v 0.057668 -0.622334 0.000000
v 0.095870 -0.617603 0.187500
v 0.095870 -0.617603 0.000000
v 0.133708 -0.610530 0.187500
v 0.133708 -0.610530 0.000000
v 0.171039 -0.601141 0.187500
v 0.171039 -0.601141 0.000000
v 0.207722 -0.589472 0.187500
v 0.207722 -0.589472 0.000000
v 0.243616 -0.575566 0.187500
v 0.243616 -0.575566 0.000000
v 0.278586 -0.559477 0.187500
v 0.278586 -0.559477 0.000000
v 0.312500 -0.541266 0.187500
v 0.312500 -0.541266 0.000000
v 0.345228 -0.521002 0.187500
v 0.345228 -0.521002 0.000000
v 0.376647 -0.498761 0.187500
v 0.376647 -0.498761 0.000000
v 0.406636 -0.474628 0.187500
v 0.406636 -0.474628 0.000000
v 0.435084 -0.448695 0.187500
v 0.435084 -0.448695 0.000000
v 0.461881 -0.421060 0.187500
v 0.461881 -0.421060 0.000000
v 0.486925 -0.391827 0.187500
v 0.486925 -0.391827 0.000000
v 0.510123 -0.361109 0.187500
v 0.510123 -0.361109 0.000000
v 0.531386 -0.329020 0.187500
v 0.531386 -0.329020 0.000000
v 0.550633 -0.295683 0.187500
v 0.550633 -0.295683 0.000000
v 0.567791 -0.261225 0.187500
v 0.567791 -0.261225 0.000000
v 0.582795 -0.225776 0.187500
v 0.582795 -0.225776 0.000000
v 0.595589 -0.189470 0.187500
v 0.595589 -0.189470 0.000000
v 0.606123 -0.152446 0.187500
v 0.606123 -0.152446 0.000000
v 0.614358 -0.114843 0.187500
v 0.614358 -0.114843 0.000000
v 0.620263 -0.076805 0.187500
v 0.620263 -0.076805 0.000000
v 0.498834 -0.034121 0.187500
v 0.500000 -0.000000 0.187500
v 0.495343 -0.068083 0.187500
v 0.489542 -0.101728 0.187500
v 0.481459 -0.134898 0.187500
v 0.471130 -0.167440 0.187500
v 0.458606 -0.199201 0.187500
v 0.443943 -0.230033 0.187500
v 0.427210 -0.259792 0.187500
v 0.408485 -0.288340 0.187500
v 0.387856 -0.315544 0.187500
v 0.365418 -0.341277 0.187500
v 0.341277 -0.365418 0.187500
v 0.315544 -0.387856 0.187500
v 0.288340 -0.408485 0.187500
v 0.259792 -0.427210 0.187500
v 0.230033 -0.443943 0.187500
v 0.199201 -0.458606 0.187500
v 0.167440 -0.471130 0.187500
v 0.134898 -0.481459 0.187500
v 0.101728 -0.489542 0.187500
v 0.068083 -0.495343 0.187500
v 0.034121 -0.498834 0.187500
v -0.000000 -0.500000 0.187500
v -0.034121 -0.498834 0.187500
v -0.068083 -0.495343 0.187500
v -0.101728 -0.489542 0.187500
v -0.134898 -0.481459 0.187500
v -0.167440 -0.471130 0.187500
v -0.199201 -0.458606 0.187500
v -0.230033 -0.443943 0.187500
v -0.259792 -0.427210 0.187500
v -0.288340 -0.408485 0.187500
v -0.315544 -0.387856 0.187500
v -0.341277 -0.365418 0.187500
v -0.365418 -0.341277 0.187500
v -0.387856 -0.315544 0.187500
v -0.408485 -0.288340 0.187500
v -0.427210 -0.259792 0.187500
v -0.443943 -0.230033 0.187500
v -0.458606 -0.199201 0.187500
v -0.471130 -0.167440 0.187500
v -0.481459 -0.134898 0.187500
v -0.489542 -0.101728 0.187500
v -0.495343 -0.068083 0.187500
v -0.498834 -0.034121 0.187500
v -0.500000 0.000000 0.187500
v -0.498834 0.034121 0.187500
v -0.495343 0.068083 0.187500
v -0.489542 0.101728 0.187500
v -0.481459 0.134898 0.187500
v -0.471130 0.167440 0.187500
v -0.458606 0.199201 0.187500
v -0.443943 0.230033 0.187500
v -0.427210 0.259792 0.187500
v -0.408485 0.288340 0.187500
v -0.387856 0.315544 0.187500
v -0.365418 0.341277 0.187500
v -0.341277 0.365418 0.187500
v -0.315544 0.387856 0.187500
v -0.288340 0.408485 0.187500
v -0.259792 0.427210 0.187500
v -0.230033 0.443943 0.187500
v -0.199201 0.458606 0.187500
v -0.167440 0.471130 0.187500
v -0.134898 0.481459 0.187500
v -0.101728 0.489542 0.187500
v -0.068083 0.495343 0.187500
v -0.034121 0.498834 0.187500
v 0.000000 0.500000 0.187500
v 0.034121 0.498834 0.187500
v 0.068083 0.495343 0.187500
v 0.101728 0.489542 0.187500
v 0.134898 0.481459 0.187500
v 0.167440 0.471130 0.187500
v 0.199201 0.458606 0.187500
v 0.230033 0.443943 0.187500
v 0.259792 0.427210 0.187500
v 0.288340 0.408485 0.187500
v 0.315544 0.387856 0.187500
v 0.341277 0.365418 0.187500
v 0.365418 0.341277 0.187500
v 0.387856 0.315544 0.187500
v 0.408485 0.288340 0.187500
v 0.427210 0.259792 0.187500
v 0.443943 0.230033 0.187500
v 0.458606 0.199201 0.187500
v 0.471130 0.167440 0.187500
v 0.481459 0.134898 0.187500
v 0.489542 0.101728 0.187500
v 0.495343 0.068083 0.187500
v 0.498834 0.034121 0.187500
v -0.373815 -0.029794 0.625000
v -0.373815 -0.029794 0.000000
v -0.375000 -0.000000 0.625000
v -0.375000 -0.000000 0.000000
v -0.373815 0.029794 0.625000
v -0.373815 0.029794 0.000000
v -0.370266 0.059399 0.625000
v -0.370266 0.059399 0.000000
v -0.364376 0.088629 0.625000
v -0.364376 0.088629 0.000000
v -0.356183 0.117299 0.625000
v -0.356183 0.117299 0.000000
v -0.345737 0.145227 0.625000
v -0.345737 0.145227 0.000000
v -0.333106 0.172236 0.625000
v -0.333106 0.172236 0.000000
v -0.318369 0.198157 0.625000
v -0.318369 0.198157 0.000000
v -0.301619 0.222825 0.625000
v -0.301619 0.222825 0.000000
v -0.282962 0.246085 0.625000
v -0.282962 0.246085 0.000000
v -0.262516 0.267788 0.625000
v -0.262516 0.267788 0.000000
v -0.240410 0.287798 0.625000
v -0.240410 0.287798 0.000000
v -0.216785 0.305989 0.625000
v -0.216785 0.305989 0.000000
v -0.191788 0.322246 0.625000
v -0.191788 0.322246 0.000000
v -0.165580 0.336465 0.625000
v -0.165580 0.336465 0.000000
v -0.138324 0.348556 0.625000
v -0.138324 0.348556 0.000000
v -0.110194 0.358444 0.625000
v -0.110194 0.358444 0.000000
v -0.081367 0.366066 0.625000
v -0.081367 0.366066 0.000000
v -0.052026 0.371374 0.625000
v -0.052026 0.371374 0.000000
v -0.022356 0.374333 0.625000
v -0.022356 0.374333 0.000000
v 0.007456 0.374926 0.625000
v 0.007456 0.374926 0.000000
v 0.037220 0.373148 0.625000
v 0.037220 0.373148 0.000000
v 0.066749 0.369012 0.625000
v 0.066749 0.369012 0.000000
v 0.095856 0.362542 0.625000
v 0.095856 0.362542 0.000000
v 0.124357 0.353780 0.625000
v 0.124357 0.353780 0.000000
v 0.152072 0.342781 0.625000
v 0.152072 0.342781 0.000000
v 0.178825 0.329616 0.625000
v 0.178825 0.329616 0.000000
v 0.204448 0.314366 0.625000
v 0.204448 0.314366 0.000000
v 0.228778 0.297129 0.625000
v 0.228778 0.297129 0.000000
v 0.251662 0.278013 0.625000
v 0.251662 0.278013 0.000000
v 0.272955 0.257140 0.625000
v 0.272955 0.257140 0.000000
v 0.292521 0.234641 0.625000
v 0.292521 0.234641 0.000000
v 0.310239 0.210658 0.625000
v 0.310239 0.210658 0.000000
v 0.325995 0.185343 0.625000
v 0.325995 0.185343 0.000000
v 0.339690 0.158857 0.625000
v 0.339690 0.158857 0.000000
v 0.351238 0.131367 0.625000
v 0.351238 0.131367 0.000000
v 0.360564 0.103045 0.625000
v 0.360564 0.103045 0.000000
v 0.367612 0.074073 0.625000
v 0.367612 0.074073 0.000000
v 0.372335 0.044632 0.625000
v 0.372335 0.044632 0.000000
v 0.374704 0.014909 0.625000
v 0.374704 0.014909 0.000000
v 0.374704 -0.014909 0.625000
v 0.374704 -0.014909 0.000000
v 0.372335 -0.044632 0.625000
v 0.372335 -0.044632 0.000000
v 0.367612 -0.074073 0.625000
v 0.367612 -0.074073 0.000000
v 0.360564 -0.103045 0.625000
v 0.360564 -0.103045 0.000000
v 0.351238 -0.131367 0.625000
v 0.351238 -0.131367 0.000000
v 0.339690 -0.158857 0.625000
v 0.339690 -0.158857 0.000000
v 0.325995 -0.185343 0.625000
v 0.325995 -0.185343 0.000000
v 0.310239 -0.210658 0.625000
v 0.310239 -0.210658 0.000000
v 0.292521 -0.234641 0.625000
v 0.292521 -0.234641 0.000000
v 0.272955 -0.257140 0.625000
v 0.272955 -0.257140 0.000000
v 0.251662 -0.278013 0.625000
v 0.251662 -0.278013 0.000000
v 0.228778 -0.297129 0.625000
v 0.228778 -0.297129 0.000000
v 0.204448 -0.314366 0.625000
v 0.204448 -0.314366 0.000000
v 0.178825 -0.329616 0.625000
v 0.178825 -0.329616 0.000000
v 0.152072 -0.342781 0.625000
v 0.152072 -0.342781 0.000000
v 0.124357 -0.353780 0.625000
v 0.124357 -0.353780 0.000000
v 0.095856 -0.362542 0.625000
v 0.095856 -0.362542 0.000000
v 0.066749 -0.369012 0.625000
v 0.066749 -0.369012 0.000000
v 0.037220 -0.373148 0.625000
v 0.037220 -0.373148 0.000000
v 0.007456 -0.374926 0.625000
v 0.007456 -0.374926 0.000000
v -0.022356 -0.374333 0.625000
v -0.022356 -0.374333 0.000000
v -0.052026 -0.371374 0.625000
v -0.052026 -0.371374 0.000000
v -0.081367 -0.366066 0.625000
v -0.081367 -0.366066 0.000000
v -0.110194 -0.358444 0.625000
v -0.110194 -0.358444 0.000000
v -0.138324 -0.348556 0.625000
v -0.138324 -0.348556 0.000000
v -0.165580 -0.336465 0.625000
v -0.165580 -0.336465 0.000000
v -0.191788 -0.322246 0.625000
v -0.191788 -0.322246 0.000000
v -0.216785 -0.305989 0.625000
v -0.216785 -0.305989 0.000000
v -0.240410 -0.287798 0.625000
v -0.240410 -0.287798 0.000000
v -0.262516 -0.267788 0.625000
v -0.262516 -0.267788 0.000000
v -0.282962 -0.246085 0.625000
v -0.282962 -0.246085 0.000000
v -0.301619 -0.222825 0.625000
v -0.301619 -0.222825 0.000000
v -0.318369 -0.198157 0.625000
v -0.318369 -0.198157 0.000000
v -0.333106 -0.172236 0.625000
v -0.333106 -0.172236 0.000000
v -0.345737 -0.145227 0.625000
v -0.345737 -0.145227 0.000000
v -0.356183 -0.117299 0.625000
v -0.356183 -0.117299 0.000000
v -0.364376 -0.088629 0.625000
v -0.364376 -0.088629 0.000000
v -0.370266 -0.059399 0.625000
v -0.370266 -0.059399 0.000000
v 0.498834 0.034121 0.625000
v 0.500000 0.000000 0.625000
v 0.498834 -0.034121 0.625000
v 0.495343 -0.068083 0.625000
v 0.489542 -0.101728 0.625000
v 0.481459 -0.134898 0.625000
v 0.471130 -0.167440 0.625000
v 0.458606 -0.199201 0.625000
v 0.443943 -0.230033 0.625000
v 0.427210 -0.259792 0.625000
v 0.408485 -0.288340 0.625000
v 0.387856 -0.315544 0.625000
v 0.365418 -0.341277 0.625000
v 0.341277 -0.365418 0.625000
v 0.315544 -0.387856 0.625000
v 0.288340 -0.408485 0.625000
v 0.259792 -0.427210 0.625000
v 0.230033 -0.443943 0.625000
v 0.199201 -0.458606 0.625000
v 0.167440 -0.471130 0.625000
v 0.134898 -0.481459 0.625000
v 0.101728 -0.489542 0.625000
v 0.068083 -0.495343 0.625000
v 0.034121 -0.498834 0.625000
v 0.000000 -0.500000 0.625000
v -0.034121 -0.498834 0.625000
v -0.068083 -0.495343 0.625000
v -0.101728 -0.489542 0.625000
v -0.134898 -0.481459 0.625000
v -0.167440 -0.471130 0.625000
v -0.199201 -0.458606 0.625000
v -0.230033 -0.443943 0.625000
v -0.259792 -0.427210 0.625000
v -0.288340 -0.408485 0.625000
v -0.315544 -0.387856 0.625000
v -0.341277 -0.365418 0.625000
v -0.365418 -0.341277 0.625000
v -0.387856 -0.315544 0.625000
v -0.408485 -0.288340 0.625000
v -0.427210 -0.259792 0.625000
v -0.443943 -0.230033 0.625000
v -0.458606 -0.199201 0.625000
v -0.471130 -0.167440 0.625000
v -0.481459 -0.134898 0.625000
v -0.489542 -0.101728 0.625000
v -0.495343 -0.068083 0.625000
v -0.498834 -0.034121 0.625000
v -0.500000 -0.000000 0.625000
v -0.498834 0.034121 0.625000
v -0.495343 0.068083 0.625000
v -0.489542 0.101728 0.625000
v -0.481459 0.134898 0.625000
v -0.471130 0.167440 0.625000
v -0.458606 0.199201 0.625000
v -0.443943 0.230033 0.625000
v -0.427210 0.259792 0.625000
v -0.408485 0.288340 0.625000
v -0.387856 0.315544 0.625000
v -0.365418 0.341277 0.625000
v -0.341277 0.365418 0.625000
v -0.315544 0.387856 0.625000
v -0.288340 0.408485 0.625000
v -0.259792 0.427210 0.625000
v -0.230033 0.443943 0.625000
v -0.199201 0.458606 0.625000
v -0.167440 0.471130 0.625000
v -0.134898 0.481459 0.625000
v -0.101728 0.489542 0.625000
v -0.068083 0.495343 0.625000
v -0.034121 0.498834 0.625000
v 0.000000 0.500000 0.625000
v 0.034121 0.498834 0.625000
v 0.068083 0.495343 0.625000
v 0.101728 0.489542 0.625000
v 0.134898 0.481459 0.625000
v 0.167440 0.471130 0.625000
v 0.199201 0.458606 0.625000
v 0.230033 0.443943 0.625000
v 0.259792 0.427210 0.625000
v 0.288340 0.408485 0.625000
v 0.315544 0.387856 0.625000
v 0.341277 0.365418 0.625000
v 0.365418 0.341277 0.625000
v 0.387856 0.315544 0.625000
v 0.408485 0.288340 0.625000
v 0.427210 0.259792 0.625000
v 0.443943 0.230033 0.625000
v 0.458606 0.199201 0.625000
v 0.471130 0.167440 0.625000
v 0.481459 0.134898 0.625000
v 0.489542 0.101728 0.625000
v 0.495343 0.068083 0.625000
usemtl 156,156,156
f 1 2 3
f 3 2 4
f 3 4 5
f 5 4 6
f 5 6 7
f 7 6 8
f 7 8 9
f 9 8 10
f 9 10 11
f 11 10 12
f 11 12 13
f 13 12 14
f 13 14 15
f 15 14 16
f 15 16 17
f 17 16 18
f 17 18 19
f 19 18 20
f 19 20 21
f 21 20 22
f 21 22 23
f 23 22 24
f 23 24 25
f 25 24 26
f 25 26 27
f 27 26 28
f 27 28 29
f 29 28 30
f 29 30 31
f 31 30 32
f 31 32 33
f 33 32 34
f 33 34 35
f 35 34 36
f 35 36 37
f 37 36 38
f 37 38 39
f 39 38 40
f 39 40 41
f 41 40 42
f 41 42 43
f 43 42 44
f 43 44 45
f 45 44 46
f 45 46 47
f 47 46 48
f 47 48 49
f 49 48 50
f 49 50 51
f 51 50 52
f 51 52 53
f 53 52 54
f 53 54 55
f 55 54 56
f 55 56 57
f 57 56 58
f 57 58 59
f 59 58 60
f 59 60 61
f 61 60 62
f 61 62 63
f 63 62 64
f 63 64 65
f 65 64 66
f 65 66 67
f 67 66 68
f 67 68 69
f 69 68 70
f 69 70 71
f 71 70 72
f 71 72 73
f 73 72 74
f 73 74 75
f 75 74 76
f 75 76 77
f 77 76 78
f 77 78 79
f 79 78 80
f 79 80 81
f 81 80 82
f 81 82 83
f 83 82 84
f 83 84 85
f 85 84 86
f 85 86 87
f 87 86 88
f 87 88 89
f 89 88 90
f 89 90 91
f 91 90 92
f 91 92 93
f 93 92 94
f 93 94 95
f 95 94 96
f 95 96 97
f 97 96 98
f 97 98 99
f 99 98 100
f 99 100 101
f 101 100 102
f 101 102 103
f 103 102 104
f 103 104 105
f 105 104 106
f 105 106 107
f 107 106 108
f 107 108 109
f 109 108 110
f 109 110 111
f 111 110 112
f 111 112 113
f 113 112 114
f 113 114 115
f 115 114 116
f 115 116 117
f 117 116 118
f 117 118 119
f 119 118 120
f 119 120 121
f 121 120 122
f 121 122 123
f 123 122 124
f 123 124 125
f 125 124 126
f 125 126 127
f 127 126 128
f 127 128 129
f 129 128 130
f 129 130 131
f 131 130 132
f 131 132 133
f 133 132 134
f 133 134 135
f 135 134 136
f 135 136 137
f 137 136 138
f 137 138 139
f 139 138 140
f 139 140 141
f 141 140 142
f 141 142 143
f 143 142 144
f 143 144 145
f 145 144 146
f 145 146 147
f 147 146 148
f 147 148 149
f 149 148 150
f 149 150 151
f 151 150 152
f 151 152 153
f 153 152 154
f 153 154 155
f 155 154 156
f 155 156 157
f 157 156 158
f 157 158 159
f 159 158 160
f 159 160 161
f 161 160 162
f 161 162 163
f 163 162 164
f 163 164 165
f 165 164 166
f 165 166 167
f 167 166 168
f 167 168 169
f 169 168 170
f 169 170 171
f 171 170 172
f 171 172 173
f 173 172 174
f 173 174 175
f 175 174 176
f 175 176 177
f 177 176 178
f 177 178 179
f 179 178 180
f 179 180 181
f 181 180 182
f 181 182 183
f 183 182 184
f 183 184 185
f 185 184 186
f 185 186 187
f 187 186 188
f 187 188 189
f 189 188 190
f 189 190 191
f 191 190 192
f 191 192 193
f 193 192 194
f 193 194 195
f 195 194 196
f 195 196 197
f 197 196 198
f 197 198 199
f 199 198 200
f 199 200 201
f 201 200 202
f 201 202 203
f 203 202 204
f 203 204 1
f 1 204 2
f 205 1 206
f 206 1 3
f 206 3 5
f 1 205 203
f 203 205 207
f 203 207 201
f 201 207 208
f 201 208 199
f 199 208 209
f 199 209 197
f 197 209 210
f 197 210 195
f 195 210 211
f 195 211 193
f 193 211 212
f 193 212 191
f 191 212 213
f 191 213 189
f 189 213 214
f 189 214 187
f 187 214 185
f 185 214 215
f 185 215 183
f 183 215 216
f 183 216 181
f 181 216 217
f 181 217 179
f 179 217 218
f 179 218 177
f 177 218 219
f 177 219 175
f 175 219 220
f 175 220 173
f 173 220 221
f 173 221 171
f 171 221 222
f 171 222 169
f 169 222 223
f 169 223 167
f 167 223 165
f 165 223 224
f 165 224 163
f 163 224 225
f 163 225 161
f 161 225 226
f 161 226 159
f 159 226 227
f 159 227 157
f 157 227 228
f 157 228 155
f 155 228 229
f 155 229 153
f 153 229 230
f 153 230 151
f 151 230 231
f 151 231 149
f 149 231 232
f 149 232 147
f 147 232 233
f 147 233 145
f 145 233 143
f 143 233 234
f 143 234 141
f 141 234 235
f 141 235 139
f 139 235 236
f 139 236 137
f 137 236 237
f 137 237 135
f 135 237 238
f 135 238 133
f 133 238 239
f 133 239 131
f 131 239 240
f 131 240 129
f 129 240 241
f 129 241 127
f 127 241 242
f 127 242 125
f 125 242 123
f 123 242 243
f 123 243 121
f 121 243 244
f 121 244 119
f 119 244 245
f 119 245 117
f 117 245 246
f 117 246 115
f 115 246 247
f 115 247 113
f 113 247 248
f 113 248 111
f 111 248 249
f 111 249 109
f 109 249 250
f 109 250 107
f 107 250 251
f 107 251 105
f 105 251 103
f 103 251 252
f 103 252 101
f 101 252 253
f 101 253 99
f 99 253 254
f 99 254 97
f 97 254 255
f 97 255 95
f 95 255 256
f 95 256 93
f 93 256 257
f 93 257 91
f 91 257 258
f 91 258 89
f 89 258 259
f 89 259 87
f 87 259 260
f 87 260 85
f 85 260 83
f 83 260 261
f 83 261 81
f 81 261 262
f 81 262 79
f 79 262 263
f 79 263 77
f 77 263 264
f 77 264 75
f 75 264 265
f 75 265 73
f 73 265 266
f 73 266 71
f 71 266 267
f 71 267 69
f 69 267 268
f 69 268 67
f 67 268 269
f 67 269 65
f 65 269 63
f 63 269 270
f 63 270 61
f 61 270 271
f 61 271 59
f 59 271 272
f 59 272 57
f 57 272 273
f 57 273 55
f 55 273 274
f 55 274 53
f 53 274 275
f 53 275 51
f 51 275 276
f 51 276 49
f 49 276 277
f 49 277 47
f 47 277 278
f 47 278 45
f 45 278 279
f 45 279 43
f 43 279 41
f 41 279 280
f 41 280 39
f 39 280 281
f 39 281 37
f 37 281 282
f 37 282 35
f 35 282 283
f 35 283 33
f 33 283 284
f 33 284 31
f 31 284 285
f 31 285 29
f 29 285 286
f 29 286 27
f 27 286 287
f 27 287 25
f 25 287 288
f 25 288 23
f 23 288 21
f 21 288 289
f 21 289 19
f 19 289 290
f 19 290 17
f 17 290 291
f 17 291 15
f 15 291 292
f 15 292 13
f 13 292 293
f 13 293 11
f 11 293 294
f 11 294 9
f 9 294 295
f 9 295 7
f 7 295 296
f 7 296 5
f 5 296 206
f 297 298 299
f 299 298 300
f 299 300 301
f 301 300 302
f 301 302 303
f 303 302 304
f 303 304 305
f 305 304 306
f 305 306 307
f 307 306 308
f 307 308 309
f 309 308 310
f 309 310 311
f 311 310 312
f 311 312 313
f 313 312 314
f 313 314 315
f 315 314 316
f 315 316 317
f 317 316 318
f 317 318 319
f 319 318 320
f 319 320 321
f 321 320 322
f 321 322 323
f 323 322 324
f 323 324 325
f 325 324 326
f 325 326 327
f 327 326 328
f 327 328 329
f 329 328 330
f 329 330 331
f 331 330 332
f 331 332 333
f 333 332 334
f 333 334 335
f 335 334 336
f 335 336 337
f 337 336 338
f 337 338 339
f 339 338 340
f 339 340 341
f 341 340 342
f 341 342 343
f 343 342 344
f 343 344 345
f 345 344 346
f 345 346 347
f 347 346 348
f 347 348 349
f 349 348 350
f 349 350 351
f 351 350 352
f 351 352 353
f 353 352 354
f 353 354 355
f 355 354 356
f 355 356 357
f 357 356 358
f 357 358 359
f 359 358 360
f 359 360 361
f 361 360 362
f 361 362 363
f 363 362 364
f 363 364 365
f 365 364 366
f 365 366 367
f 367 366 368
f 367 368 369
f 369 368 370
f 369 370 371
f 371 370 372
f 371 372 373
f 373 372 374
f 373 374 375
f 375 374 376
f 375 376 377
f 377 376 378
f 377 378 379
f 379 378 380
f 379 380 381
f 381 380 382
f 381 382 383
f 383 382 384
f 383 384 385
f 385 384 386
f 385 386 387
f 387 386 388
f 387 388 389
f 389 388 390
f 389 390 391
f 391 390 392
f 391 392 393
f 393 392 394
f 393 394 395
f 395 394 396
f 395 396 397
f 397 396 398
f 397 398 399
f 399 398 400
f 399 400 401
f 401 400 402
f 401 402 403
f 403 402 404
f 403 404 405
f 405 404 406
f 405 406 407
f 407 406 408
f 407 408 409
f 409 408 410
f 409 410 411
f 411 410 412
f 411 412 413
f 413 412 414
f 413 414 415
f 415 414 416
f 415 416 417
f 417 416 418
f 417 418 419
f 419 418 420
f 419 420 421
f 421 420 422
f 421 422 423
f 423 422 424
f 423 424 425
f 425 424 426
f 425 426 427
f 427 426 428
f 427 428 429
f 429 428 430
f 429 430 431
f 431 430 432
f 431 432 433
f 433 432 434
f 433 434 435
f 435 434 436
f 435 436 437
f 437 436 438
f 437 438 439
f 439 438 440
f 439 440 441
f 441 440 442
f 441 442 443
f 443 442 444
f 443 444 445
f 445 444 446
f 445 446 447
f 447 446 448
f 447 448 449
f 449 448 450
f 449 450 451
f 451 450 452
f 451 452 453
f 453 452 454
f 453 454 297
f 297 454 298
f 296 455 206
f 206 455 456
f 206 456 205
f 205 456 457
f 205 457 207
f 207 457 458
f 207 458 208
f 208 458 459
f 208 459 209
f 209 459 460
f 209 460 210
f 210 460 461
f 210 461 211
f 211 461 462
f 211 462 212
f 212 462 463
f 212 463 213
f 213 463 464
f 213 464 214
f 214 464 465
f 214 465 215
f 215 465 466
f 215 466 216
f 216 466 467
f 216 467 217
f 217 467 468
f 217 468 218
f 218 468 469
f 218 469 219
f 219 469 470
f 219 470 220
f 220 470 471
f 220 471 221
f 221 471 472
f 221 472 222
f 222 472 473
f 222 473 223
f 223 473 474
f 223 474 224
f 224 474 475
f 224 475 225
f 225 475 476
f 225 476 226
f 226 476 477
f 226 477 227
f 227 477 478
f 227 478 228
f 228 478 479
f 228 479 229
f 229 479 480
f 229 480 230
f 230 480 481
f 230 481 231
f 231 481 482
f 231 482 232
f 232 482 483
f 232 483 233
f 233 483 484
f 233 484 234
f 234 484 485
f 234 485 235
f 235 485 486
f 235 486 236
f 236 486 487
f 236 487 237
f 237 487 488
f 237 488 238
f 238 488 489
f 238 489 239
f 239 489 490
f 239 490 240
f 240 490 491
f 240 491 241
f 241 491 492
f 241 492 242
f 242 492 493
f 242 493 243
f 243 493 494
f 243 494 244
f 244 494 495
f 244 495 245
f 245 495 496
f 245 496 246
f 246 496 497
f 246 497 247
f 247 497 498
f 247 498 248
f 248 498 499
f 248 499 249
f 249 499 500
f 249 500 250
f 250 500 501
f 250 501 251
f 251 501 502
f 251 502 252
f 252 502 503
f 252 503 253
f 253 503 504
f 253 504 254
f 254 504 505
f 254 505 255
f 255 505 506
f 255 506 256
f 256 506 507
f 256 507 257
f 257 507 508
f 257 508 258
f 258 508 509
f 258 509 259
f 259 509 510
f 259 510 260
f 260 510 511
f 260 511 261
f 261 511 512
f 261 512 262
f 262 512 513
f 262 513 263
f 263 513 514
f 263 514 264
f 264 514 515
f 264 515 265
f 265 515 516
f 265 516 266
f 266 516 517
f 266 517 267
f 267 517 518
f 267 518 268
f 268 518 519
f 268 519 269
f 269 519 520
f 269 520 270
f 270 520 521
f 270 521 271
f 271 521 522
f 271 522 272
f 272 522 523
f 272 523 273
f 273 523 524
f 273 524 274
f 274 524 525
f 274 525 275
f 275 525 526
f 275 526 276
f 276 526 527
f 276 527 277
f 277 527 528
f 277 528 278
f 278 528 529
f 278 529 279
f 279 529 530
f 279 530 280
f 280 530 531
f 280 531 281
f 281 531 532
f 281 532 282
f 282 532 533
f 282 533 283
f 283 533 534
f 283 534 284
f 284 534 535
f 284 535 285
f 285 535 536
f 285 536 286
f 286 536 537
f 286 537 287
f 287 537 538
f 287 538 288
f 288 538 539
f 288 539 289
f 289 539 540
f 289 540 290
f 290 540 541
f 290 541 291
f 291 541 542
f 291 542 292
f 292 542 543
f 292 543 293
f 293 543 544
f 293 544 294
f 294 544 545
f 294 545 295
f 295 545 546
f 295 546 296
f 296 546 455
f 301 503 299
f 299 503 502
f 299 502 501
f 503 301 504
f 504 301 303
f 504 303 505
f 505 303 305
f 505 305 506
f 506 305 307
f 506 307 507
f 507 307 309
f 507 309 508
f 508 309 311
f 508 311 509
f 509 311 510
f 510 311 313
f 510 313 511
f 511 313 315
f 511 315 512
f 512 315 317
f 512 317 513
f 513 317 319
f 513 319 514
f 514 319 321
f 514 321 515
f 515 321 323
f 515 323 516
f 516 323 517
f 517 323 325
f 517 325 518
f 518 325 327
f 518 327 519
f 519 327 329
f 519 329 520
f 520 329 331
f 520 331 521
f 521 331 333
f 521 333 522
f 522 333 335
f 522 335 523
f 523 335 524
f 524 335 337
f 524 337 525
f 525 337 339
f 525 339 526
f 526 339 341
f 526 341 527
f 527 341 343
f 527 343 528
f 528 343 345
f 528 345 529
f 529 345 347
f 529 347 530
f 530 347 531
f 531 347 349
f 531 349 532
f 532 349 351
f 532 351 533
f 533 351 353
f 533 353 534
f 534 353 355
f 534 355 535
f 535 355 357
f 535 357 536
f 536 357 359
f 536 359 537
f 537 359 538
f 538 359 361
f 538 361 539
f 539 361 363
f 539 363 540
f 540 363 365
f 540 365 541
f 541 365 367
f 541 367 542
f 542 367 369
f 542 369 543
f 543 369 371
f 543 371 544
f 544 371 545
f 545 371 373
f 545 373 546
f 546 373 375
f 546 375 455
f 455 375 377
f 455 377 456
f 456 377 379
f 456 379 457
f 457 379 381
f 457 381 458
f 458 381 383
f 458 383 459
f 459 383 385
f 459 385 460
f 460 385 461
f 461 385 387
f 461 387 462
f 462 387 389
f 462 389 463
f 463 389 391
f 463 391 464
f 464 391 393
f 464 393 465
f 465 393 395
f 465 395 466
f 466 395 397
f 466 397 467
f 467 397 468
f 468 397 399
f 468 399 469
f 469 399 401
f 469 401 470
f 470 401 403
f 470 403 471
f 471 403 405
f 471 405 472
f 472 405 407
f 472 407 473
f 473 407 409
f 473 409 474
f 474 409 475
f 475 409 411
f 475 411 476
f 476 411 413
f 476 413 477
f 477 413 415
f 477 415 478
f 478 415 417
f 478 417 479
f 479 417 419
f 479 419 480
f 480 419 421
f 480 421 481
f 481 421 482
f 482 421 423
f 482 423 483
f 483 423 425
f 483 425 484
f 484 425 427
f 484 427 485
f 485 427 429
f 485 429 486
f 486 429 431
f 486 431 487
f 487 431 433
f 487 433 488
f 488 433 489
f 489 433 435
f 489 435 490
f 490 435 437
f 490 437 491
f 491 437 439
f 491 439 492
f 492 439 441
f 492 441 493
f 493 441 443
f 493 443 494
f 494 443 445
f 494 445 495
f 495 445 496
f 496 445 447
f 496 447 497
f 497 447 449
f 497 449 498
f 498 449 451
f 498 451 499
f 499 451 453
f 499 453 500
f 500 453 297
f 500 297 501
f 501 297 299
f 2 380 4
f 4 380 378
f 4 378 6
f 6 378 376
f 6 376 8
f 8 376 10
f 10 376 374
f 10 374 12
f 12 374 372
f 12 372 14
f 14 372 370
f 14 370 16
f 16 370 368
f 16 368 18
f 18 368 20
f 20 368 366
f 20 366 22
f 22 366 364
f 22 364 24
f 24 364 362
f 24 362 26
f 26 362 28
f 28 362 360
f 28 360 30
f 30 360 358
f 30 358 32
f 32 358 356
f 32 356 34
f 34 356 354
f 34 354 36
f 36 354 38
f 38 354 352
f 38 352 40
f 40 352 350
f 40 350 42
f 42 350 348
f 42 348 44
f 44 348 46
f 46 348 346
f 46 346 48
f 48 346 344
f 48 344 50
f 50 344 342
f 50 342 52
f 52 342 54
f 54 342 340
f 54 340 56
f 56 340 338
f 56 338 58
f 58 338 336
f 58 336 60
f 60 336 334
f 60 334 62
f 62 334 64
f 64 334 332
f 64 332 66
f 66 332 330
f 66 330 68
f 68 330 328
f 68 328 70
f 70 328 72
f 72 328 326
f 72 326 74
f 74 326 324
f 74 324 76
f 76 324 322
f 76 322 78
f 78 322 320
f 78 320 80
f 80 320 82
f 82 320 318
f 82 318 84
f 84 318 316
f 84 316 86
f 86 316 314
f 86 314 88
f 88 314 90
f 90 314 312
f 90 312 92
f 92 312 310
f 92 310 94
f 94 310 308
f 94 308 96
f 96 308 306
f 96 306 98
f 98 306 100
f 100 306 304
f 100 304 102
f 102 304 302
f 102 302 104
f 104 302 300
f 104 300 106
f 106 300 108
f 108 300 298
f 108 298 110
f 110 298 454
f 110 454 112
f 112 454 452
f 112 452 114
f 114 452 116
f 116 452 450
f 116 450 118
f 118 450 448
f 118 448 120
f 120 448 446
f 120 446 122
f 122 446 444
f 122 444 124
f 124 444 126
f 126 444 442
f 126 442 128
f 128 442 440
f 128 440 130
f 130 440 438
f 130 438 132
f 132 438 134
f 134 438 436
f 134 436 136
f 136 436 434
f 136 434 138
f 138 434 432
f 138 432 140
f 140 432 430
f 140 430 142
f 142 430 144
f 144 430 428
f 144 428 146
f 146 428 426
f 146 426 148
f 148 426 424
f 148 424 150
f 150 424 152
f 152 424 422
f 152 422 154
f 154 422 420
f 154 420 156
f 156 420 418
f 156 418 158
f 158 418 416
f 158 416 160
f 160 416 162
f 162 416 414
f 162 414 164
f 164 414 412
f 164 412 166
f 166 412 410
f 166 410 168
f 168 410 170
f 170 410 408
f 170 408 172
f 172 408 406
f 172 406 174
f 174 406 404
f 174 404 176
f 176 404 178
f 178 404 402
f 178 402 180
f 180 402 400
f 180 400 182
f 182 400 398
f 182 398 184
f 184 398 396
f 184 396 186
f 186 396 188
f 188 396 394
f 188 394 190
f 190 394 392
f 190 392 192
f 192 392 390
f 192 390 194
f 194 390 196
f 196 390 388
f 196 388 198
f 198 388 386
f 198 386 200
f 200 386 384
f 200 384 202
f 202 384 382
f 202 382 204
f 204 382 2
f 2 382 380
# 546 vertices
# 0 texture params
# 0 normals
# 1092 facets

# 1 groups
