# WaveFront *.obj file (generated by Autodesk ATF)

mtllib Rotary_Shaft_0169.mtl

g MeshFeature1

v 0.000000 0.750000 0.250000
v 59.999998 0.750000 0.250000
v 0.000000 0.750000 -0.250000
v 59.999998 0.750000 -0.250000
v 0.000000 0.968246 -0.250000
v 59.999998 0.968246 -0.250000
v 0.000000 0.875711 0.482836
v 5.454546 0.965926 0.258819
v 0.000000 0.968246 0.250000
v 10.909091 0.965926 0.258819
v 16.363637 0.965926 0.258819
v 16.363637 0.866025 0.500000
v 21.818182 0.866025 0.500000
v 21.818182 0.707107 0.707107
v 27.272728 0.707107 0.707107
v 27.272728 0.500000 0.866025
v 32.727273 0.500000 0.866025
v 32.727273 0.258819 0.965926
v 38.181819 0.258819 0.965926
v 38.181819 0.000000 1.000000
v 43.636364 0.000000 1.000000
v 43.636364 -0.258819 0.965926
v 49.090907 -0.258819 0.965926
v 49.090907 -0.500000 0.866025
v 54.545455 -0.500000 0.866025
v 54.545455 -0.707107 0.707107
v 59.999998 -0.637741 0.770251
v 59.999998 -0.809190 0.587547
v 54.545455 -0.866025 0.500000
v 59.999998 -0.929841 0.367960
v 54.545455 -0.965926 0.258819
v 59.999998 -0.992122 0.125275
v 54.545455 -1.000000 -0.000000
v 59.999998 -0.992122 -0.125275
v 54.545455 -0.965926 -0.258819
v 59.999998 -0.929841 -0.367960
v 54.545455 -0.866025 -0.500000
v 59.999998 -0.809190 -0.587547
v 54.545455 -0.707107 -0.707107
v 59.999998 -0.637741 -0.770251
v 54.545455 -0.500000 -0.866025
v 59.999998 -0.426258 -0.904601
v 54.545455 -0.258819 -0.965926
v 59.999998 -0.188017 -0.982166
v 54.545455 0.000000 -1.000000
v 59.999998 0.062027 -0.998074
v 54.545455 0.258819 -0.965926
v 59.999998 0.308178 -0.951329
v 54.545455 0.500000 -0.866025
v 59.999998 0.534982 -0.844863
v 54.545455 0.707107 -0.707107
v 59.999998 0.728203 -0.685361
v 54.545455 0.866025 -0.500000
v 59.999998 0.875711 -0.482836
v 54.545455 0.965926 -0.258819
v 49.090907 0.965926 -0.258819
v 43.636364 0.965926 -0.258819
v 43.636364 0.866025 -0.500000
v 38.181819 0.866025 -0.500000
v 38.181819 0.707107 -0.707107
v 32.727273 0.707107 -0.707107
v 32.727273 0.500000 -0.866025
v 27.272728 0.500000 -0.866025
v 27.272728 0.258819 -0.965926
v 21.818182 0.258819 -0.965926
v 21.818182 0.000000 -1.000000
v 16.363637 0.000000 -1.000000
v 16.363637 -0.258819 -0.965926
v 10.909091 -0.258819 -0.965926
v 10.909091 -0.500000 -0.866025
v 5.454546 -0.500000 -0.866025
v 5.454546 -0.707107 -0.707107
v 0.000000 -0.637741 -0.770251
v 0.000000 -0.809190 -0.587547
v 5.454546 -0.866025 -0.500000
v 0.000000 -0.929841 -0.367960
v 5.454546 -0.965926 -0.258819
v 0.000000 -0.992122 -0.125275
v 5.454546 -1.000000 -0.000000
v 0.000000 -0.992122 0.125275
v 5.454546 -0.965926 0.258819
v 0.000000 -0.929841 0.367960
v 5.454546 -0.866025 0.500000
v 0.000000 -0.809190 0.587547
v 5.454546 -0.707107 0.707107
v 0.000000 -0.637741 0.770251
v 5.454546 -0.500000 0.866025
v 0.000000 -0.426258 0.904601
v 5.454546 -0.258819 0.965926
v 0.000000 -0.188017 0.982166
v 5.454546 0.000000 1.000000
v 0.000000 0.062027 0.998074
v 5.454546 0.258819 0.965926
v 0.000000 0.308178 0.951329
v 5.454546 0.500000 0.866025
v 0.000000 0.534982 0.844863
v 5.454546 0.707107 0.707107
v 0.000000 0.728203 0.685361
v 5.454546 0.866025 0.500000
v 0.000000 -0.426258 -0.904601
v 5.454546 -0.258819 -0.965926
v 10.909091 0.000000 -1.000000
v 16.363637 0.258819 -0.965926
v 21.818182 0.500000 -0.866025
v 27.272728 0.707107 -0.707107
v 32.727273 0.866025 -0.500000
v 38.181819 0.965926 -0.258819
v 0.000000 -0.188017 -0.982166
v 5.454546 0.000000 -1.000000
v 10.909091 0.258819 -0.965926
v 16.363637 0.500000 -0.866025
v 21.818182 0.707107 -0.707107
v 27.272728 0.866025 -0.500000
v 32.727273 0.965926 -0.258819
v 0.000000 0.062027 -0.998074
v 5.454546 0.258819 -0.965926
v 10.909091 0.500000 -0.866025
v 16.363637 0.707107 -0.707107
v 21.818182 0.866025 -0.500000
v 27.272728 0.965926 -0.258819
v 0.000000 0.308178 -0.951329
v 5.454546 0.500000 -0.866025
v 10.909091 0.707107 -0.707107
v 16.363637 0.866025 -0.500000
v 21.818182 0.965926 -0.258819
v 0.000000 0.534982 -0.844863
v 5.454546 0.707107 -0.707107
v 10.909091 0.866025 -0.500000
v 16.363637 0.965926 -0.258819
v 0.000000 0.728203 -0.685361
v 5.454546 0.866025 -0.500000
v 10.909091 0.965926 -0.258819
v 0.000000 0.875711 -0.482836
v 5.454546 0.965926 -0.258819
v 59.999998 -0.426258 0.904601
v 54.545455 -0.258819 0.965926
v 49.090907 0.000000 1.000000
v 43.636364 0.258819 0.965926
v 38.181819 0.500000 0.866025
v 32.727273 0.707107 0.707107
v 27.272728 0.866025 0.500000
v 21.818182 0.965926 0.258819
v 59.999998 -0.188017 0.982166
v 54.545455 -0.000000 1.000000
v 49.090907 0.258819 0.965926
v 43.636364 0.500000 0.866025
v 38.181819 0.707107 0.707107
v 32.727273 0.866025 0.500000
v 27.272728 0.965926 0.258819
v 59.999998 0.062027 0.998074
v 54.545455 0.258819 0.965926
v 49.090907 0.500000 0.866025
v 43.636364 0.707107 0.707107
v 38.181819 0.866025 0.500000
v 32.727273 0.965926 0.258819
v 59.999998 0.308178 0.951329
v 54.545455 0.500000 0.866025
v 49.090907 0.707107 0.707107
v 43.636364 0.866025 0.500000
v 38.181819 0.965926 0.258819
v 59.999998 0.968246 0.250000
v 59.999998 0.534982 0.844863
v 54.545455 0.707107 0.707107
v 49.090907 0.866025 0.500000
v 43.636364 0.965926 0.258819
v 59.999998 0.728203 0.685361
v 54.545455 0.866025 0.500000
v 49.090907 0.965926 0.258819
v 59.999998 0.875711 0.482836
v 54.545455 0.965926 0.258819
v 10.909091 0.000000 1.000000
v 10.909091 0.258819 0.965926
v 10.909091 0.500000 0.866025
v 10.909091 0.707107 0.707107
v 10.909091 0.866025 0.500000
v 16.363637 0.000000 1.000000
v 16.363637 0.258819 0.965926
v 16.363637 0.500000 0.866025
v 16.363637 0.707107 0.707107
v 10.909091 -0.258819 0.965926
v 10.909091 -0.500000 0.866025
v 10.909091 -0.707107 0.707107
v 10.909091 -0.866025 0.500000
v 10.909091 -0.965926 0.258819
v 10.909091 -1.000000 -0.000000
v 10.909091 -0.965926 -0.258819
v 10.909091 -0.866025 -0.500000
v 10.909091 -0.707107 -0.707107
v 21.818182 0.000000 1.000000
v 21.818182 0.258819 0.965926
v 21.818182 0.500000 0.866025
v 16.363637 -0.258819 0.965926
v 16.363637 -0.500000 0.866025
v 16.363637 -0.707107 0.707107
v 16.363637 -0.866025 0.500000
v 16.363637 -0.965926 0.258819
v 16.363637 -1.000000 -0.000000
v 16.363637 -0.965926 -0.258819
v 16.363637 -0.866025 -0.500000
v 16.363637 -0.707107 -0.707107
v 16.363637 -0.500000 -0.866025
v 27.272728 0.000000 1.000000
v 27.272728 0.258819 0.965926
v 21.818182 -0.258819 0.965926
v 21.818182 -0.500000 0.866025
v 21.818182 -0.707107 0.707107
v 21.818182 -0.866025 0.500000
v 21.818182 -0.965926 0.258819
v 21.818182 -1.000000 -0.000000
v 21.818182 -0.965926 -0.258819
v 21.818182 -0.866025 -0.500000
v 21.818182 -0.707107 -0.707107
v 21.818182 -0.500000 -0.866025
v 21.818182 -0.258819 -0.965926
v 32.727273 0.000000 1.000000
v 27.272728 -0.258819 0.965926
v 27.272728 -0.500000 0.866025
v 27.272728 -0.707107 0.707107
v 27.272728 -0.866025 0.500000
v 27.272728 -0.965926 0.258819
v 27.272728 -1.000000 -0.000000
v 27.272728 -0.965926 -0.258819
v 27.272728 -0.866025 -0.500000
v 27.272728 -0.707107 -0.707107
v 27.272728 -0.500000 -0.866025
v 27.272728 -0.258819 -0.965926
v 27.272728 0.000000 -1.000000
v 38.181819 -0.258819 0.965926
v 43.636364 -0.500000 0.866025
v 49.090907 -0.707107 0.707107
v 32.727273 -0.258819 0.965926
v 32.727273 -0.500000 0.866025
v 32.727273 -0.707107 0.707107
v 32.727273 -0.866025 0.500000
v 32.727273 -0.965926 0.258819
v 32.727273 -1.000000 -0.000000
v 32.727273 -0.965926 -0.258819
v 32.727273 -0.866025 -0.500000
v 32.727273 -0.707107 -0.707107
v 32.727273 -0.500000 -0.866025
v 32.727273 -0.258819 -0.965926
v 32.727273 0.000000 -1.000000
v 32.727273 0.258819 -0.965926
v 38.181819 -0.500000 0.866025
v 43.636364 -0.707107 0.707107
v 49.090907 -0.866025 0.500000
v 38.181819 -0.707107 0.707107
v 38.181819 -0.866025 0.500000
v 38.181819 -0.965926 0.258819
v 38.181819 -1.000000 -0.000000
v 38.181819 -0.965926 -0.258819
v 38.181819 -0.866025 -0.500000
v 38.181819 -0.707107 -0.707107
v 38.181819 -0.500000 -0.866025
v 38.181819 -0.258819 -0.965926
v 38.181819 0.000000 -1.000000
v 38.181819 0.258819 -0.965926
v 38.181819 0.500000 -0.866025
v 43.636364 -0.866025 0.500000
v 49.090907 -0.965926 0.258819
v 43.636364 -0.965926 0.258819
v 43.636364 -1.000000 -0.000000
v 43.636364 -0.965926 -0.258819
v 43.636364 -0.866025 -0.500000
v 43.636364 -0.707107 -0.707107
v 43.636364 -0.500000 -0.866025
v 43.636364 -0.258819 -0.965926
v 43.636364 0.000000 -1.000000
v 43.636364 0.258819 -0.965926
v 43.636364 0.500000 -0.866025
v 43.636364 0.707107 -0.707107
v 49.090907 -1.000000 -0.000000
v 49.090907 -0.965926 -0.258819
v 49.090907 -0.866025 -0.500000
v 49.090907 -0.707107 -0.707107
v 49.090907 -0.500000 -0.866025
v 49.090907 -0.258819 -0.965926
v 49.090907 0.000000 -1.000000
v 49.090907 0.258819 -0.965926
v 49.090907 0.500000 -0.866025
v 49.090907 0.707107 -0.707107
v 49.090907 0.866025 -0.500000
usemtl 156,156,156
f 1 2 3
f 3 2 4
f 3 4 5
f 5 4 6
f 7 8 9
f 9 8 10
f 9 10 11
f 11 10 12
f 11 12 13
f 13 12 14
f 13 14 15
f 15 14 16
f 15 16 17
f 17 16 18
f 17 18 19
f 19 18 20
f 19 20 21
f 21 20 22
f 21 22 23
f 23 22 24
f 23 24 25
f 25 24 26
f 25 26 27
f 27 26 28
f 28 26 29
f 28 29 30
f 30 29 31
f 30 31 32
f 32 31 33
f 32 33 34
f 34 33 35
f 34 35 36
f 36 35 37
f 36 37 38
f 38 37 39
f 38 39 40
f 40 39 41
f 40 41 42
f 42 41 43
f 42 43 44
f 44 43 45
f 44 45 46
f 46 45 47
f 46 47 48
f 48 47 49
f 48 49 50
f 50 49 51
f 50 51 52
f 52 51 53
f 52 53 54
f 54 53 55
f 54 55 6
f 6 55 56
f 6 56 57
f 57 56 58
f 57 58 59
f 59 58 60
f 59 60 61
f 61 60 62
f 61 62 63
f 63 62 64
f 63 64 65
f 65 64 66
f 65 66 67
f 67 66 68
f 67 68 69
f 69 68 70
f 69 70 71
f 71 70 72
f 71 72 73
f 73 72 74
f 74 72 75
f 74 75 76
f 76 75 77
f 76 77 78
f 78 77 79
f 78 79 80
f 80 79 81
f 80 81 82
f 82 81 83
f 82 83 84
f 84 83 85
f 84 85 86
f 86 85 87
f 86 87 88
f 88 87 89
f 88 89 90
f 90 89 91
f 90 91 92
f 92 91 93
f 92 93 94
f 94 93 95
f 94 95 96
f 96 95 97
f 96 97 98
f 98 97 99
f 98 99 7
f 7 99 8
f 73 100 71
f 71 100 101
f 71 101 69
f 69 101 102
f 69 102 67
f 67 102 103
f 67 103 65
f 65 103 104
f 65 104 63
f 63 104 105
f 63 105 61
f 61 105 106
f 61 106 59
f 59 106 107
f 59 107 57
f 57 107 6
f 100 108 101
f 101 108 109
f 101 109 102
f 102 109 110
f 102 110 103
f 103 110 111
f 103 111 104
f 104 111 112
f 104 112 105
f 105 112 113
f 105 113 106
f 106 113 114
f 106 114 107
f 107 114 6
f 108 115 109
f 109 115 116
f 109 116 110
f 110 116 117
f 110 117 111
f 111 117 118
f 111 118 112
f 112 118 119
f 112 119 113
f 113 119 120
f 113 120 114
f 114 120 6
f 115 121 116
f 116 121 122
f 116 122 117
f 117 122 123
f 117 123 118
f 118 123 124
f 118 124 119
f 119 124 125
f 119 125 120
f 120 125 5
f 120 5 6
f 121 126 122
f 122 126 127
f 122 127 123
f 123 127 128
f 123 128 124
f 124 128 129
f 124 129 125
f 125 129 5
f 126 130 127
f 127 130 131
f 127 131 128
f 128 131 132
f 128 132 129
f 129 132 5
f 130 133 131
f 131 133 134
f 131 134 132
f 132 134 5
f 133 5 134
f 27 135 25
f 25 135 136
f 25 136 23
f 23 136 137
f 23 137 21
f 21 137 138
f 21 138 19
f 19 138 139
f 19 139 17
f 17 139 140
f 17 140 15
f 15 140 141
f 15 141 13
f 13 141 142
f 13 142 11
f 11 142 9
f 135 143 136
f 136 143 144
f 136 144 137
f 137 144 145
f 137 145 138
f 138 145 146
f 138 146 139
f 139 146 147
f 139 147 140
f 140 147 148
f 140 148 141
f 141 148 149
f 141 149 142
f 142 149 9
f 143 150 144
f 144 150 151
f 144 151 145
f 145 151 152
f 145 152 146
f 146 152 153
f 146 153 147
f 147 153 154
f 147 154 148
f 148 154 155
f 148 155 149
f 149 155 9
f 150 156 151
f 151 156 157
f 151 157 152
f 152 157 158
f 152 158 153
f 153 158 159
f 153 159 154
f 154 159 160
f 154 160 155
f 155 160 161
f 155 161 9
f 156 162 157
f 157 162 163
f 157 163 158
f 158 163 164
f 158 164 159
f 159 164 165
f 159 165 160
f 160 165 161
f 162 166 163
f 163 166 167
f 163 167 164
f 164 167 168
f 164 168 165
f 165 168 161
f 166 169 167
f 167 169 170
f 167 170 168
f 168 170 161
f 169 161 170
f 91 171 93
f 93 171 172
f 93 172 95
f 95 172 173
f 95 173 97
f 97 173 174
f 97 174 99
f 99 174 175
f 99 175 8
f 8 175 10
f 171 176 172
f 172 176 177
f 172 177 173
f 173 177 178
f 173 178 174
f 174 178 179
f 174 179 175
f 175 179 12
f 175 12 10
f 171 91 180
f 180 91 89
f 180 89 181
f 181 89 87
f 181 87 182
f 182 87 85
f 182 85 183
f 183 85 83
f 183 83 184
f 184 83 81
f 184 81 185
f 185 81 79
f 185 79 186
f 186 79 77
f 186 77 187
f 187 77 75
f 187 75 188
f 188 75 72
f 188 72 70
f 176 189 177
f 177 189 190
f 177 190 178
f 178 190 191
f 178 191 179
f 179 191 14
f 179 14 12
f 176 171 192
f 192 171 180
f 192 180 193
f 193 180 181
f 193 181 194
f 194 181 182
f 194 182 195
f 195 182 183
f 195 183 196
f 196 183 184
f 196 184 197
f 197 184 185
f 197 185 198
f 198 185 186
f 198 186 199
f 199 186 187
f 199 187 200
f 200 187 188
f 200 188 201
f 201 188 70
f 201 70 68
f 189 202 190
f 190 202 203
f 190 203 191
f 191 203 16
f 191 16 14
f 189 176 204
f 204 176 192
f 204 192 205
f 205 192 193
f 205 193 206
f 206 193 194
f 206 194 207
f 207 194 195
f 207 195 208
f 208 195 196
f 208 196 209
f 209 196 197
f 209 197 210
f 210 197 198
f 210 198 211
f 211 198 199
f 211 199 212
f 212 199 200
f 212 200 213
f 213 200 201
f 213 201 214
f 214 201 68
f 214 68 66
f 202 215 203
f 203 215 18
f 203 18 16
f 202 189 216
f 216 189 204
f 216 204 217
f 217 204 205
f 217 205 218
f 218 205 206
f 218 206 219
f 219 206 207
f 219 207 220
f 220 207 208
f 220 208 221
f 221 208 209
f 221 209 222
f 222 209 210
f 222 210 223
f 223 210 211
f 223 211 224
f 224 211 212
f 224 212 225
f 225 212 213
f 225 213 226
f 226 213 214
f 226 214 227
f 227 214 66
f 227 66 64
f 18 215 20
f 20 215 228
f 20 228 22
f 22 228 229
f 22 229 24
f 24 229 230
f 24 230 26
f 26 230 29
f 215 202 231
f 231 202 216
f 231 216 232
f 232 216 217
f 232 217 233
f 233 217 218
f 233 218 234
f 234 218 219
f 234 219 235
f 235 219 220
f 235 220 236
f 236 220 221
f 236 221 237
f 237 221 222
f 237 222 238
f 238 222 223
f 238 223 239
f 239 223 224
f 239 224 240
f 240 224 225
f 240 225 241
f 241 225 226
f 241 226 242
f 242 226 227
f 242 227 243
f 243 227 64
f 243 64 62
f 215 231 228
f 228 231 244
f 228 244 229
f 229 244 245
f 229 245 230
f 230 245 246
f 230 246 29
f 29 246 31
f 244 231 232
f 244 232 247
f 247 232 233
f 247 233 248
f 248 233 234
f 248 234 249
f 249 234 235
f 249 235 250
f 250 235 236
f 250 236 251
f 251 236 237
f 251 237 252
f 252 237 238
f 252 238 253
f 253 238 239
f 253 239 254
f 254 239 240
f 254 240 255
f 255 240 241
f 255 241 256
f 256 241 242
f 256 242 257
f 257 242 243
f 257 243 258
f 258 243 62
f 258 62 60
f 244 247 245
f 245 247 259
f 245 259 246
f 246 259 260
f 246 260 31
f 31 260 33
f 259 247 248
f 259 248 261
f 261 248 249
f 261 249 262
f 262 249 250
f 262 250 263
f 263 250 251
f 263 251 264
f 264 251 252
f 264 252 265
f 265 252 253
f 265 253 266
f 266 253 254
f 266 254 267
f 267 254 255
f 267 255 268
f 268 255 256
f 268 256 269
f 269 256 257
f 269 257 270
f 270 257 258
f 270 258 271
f 271 258 60
f 271 60 58
f 259 261 260
f 260 261 272
f 260 272 33
f 33 272 35
f 272 261 262
f 272 262 273
f 273 262 263
f 273 263 274
f 274 263 264
f 274 264 275
f 275 264 265
f 275 265 276
f 276 265 266
f 276 266 277
f 277 266 267
f 277 267 278
f 278 267 268
f 278 268 279
f 279 268 269
f 279 269 280
f 280 269 270
f 280 270 281
f 281 270 271
f 281 271 282
f 282 271 58
f 282 58 56
f 37 35 273
f 273 35 272
f 37 273 274
f 39 37 274
f 39 274 275
f 41 39 275
f 41 275 276
f 43 41 276
f 43 276 277
f 45 43 277
f 45 277 278
f 47 45 278
f 47 278 279
f 49 47 279
f 49 279 280
f 51 49 280
f 51 280 281
f 53 51 281
f 53 281 282
f 55 53 282
f 55 282 56
f 9 161 1
f 1 161 2
f 161 169 2
f 2 169 166
f 2 166 162
f 162 156 2
f 2 156 150
f 2 150 143
f 143 135 2
f 2 135 42
f 2 42 4
f 4 42 44
f 4 44 46
f 42 135 40
f 40 135 27
f 40 27 38
f 38 27 28
f 38 28 36
f 36 28 30
f 36 30 34
f 34 30 32
f 46 48 4
f 4 48 50
f 4 50 52
f 52 54 4
f 4 54 6
f 9 1 7
f 7 1 98
f 98 1 96
f 96 1 94
f 94 1 92
f 92 1 90
f 90 1 88
f 88 1 3
f 88 3 100
f 100 3 108
f 108 3 115
f 115 3 121
f 121 3 126
f 126 3 130
f 130 3 133
f 133 3 5
f 88 100 86
f 86 100 73
f 86 73 84
f 84 73 74
f 84 74 82
f 82 74 76
f 82 76 80
f 80 76 78
# 282 vertices
# 0 texture params
# 0 normals
# 560 facets

# 1 groups
